%TF.GenerationSoftware,KiCad,Pcbnew,(5.1.10)-1*%
%TF.CreationDate,2021-11-08T12:22:01+01:00*%
%TF.ProjectId,bussData,62757373-4461-4746-912e-6b696361645f,rev?*%
%TF.SameCoordinates,Original*%
%TF.FileFunction,Copper,L2,Bot*%
%TF.FilePolarity,Positive*%
%FSLAX46Y46*%
G04 Gerber Fmt 4.6, Leading zero omitted, Abs format (unit mm)*
G04 Created by KiCad (PCBNEW (5.1.10)-1) date 2021-11-08 12:22:01*
%MOMM*%
%LPD*%
G01*
G04 APERTURE LIST*
%TA.AperFunction,ComponentPad*%
%ADD10C,1.800000*%
%TD*%
%TA.AperFunction,ComponentPad*%
%ADD11C,3.000000*%
%TD*%
%TA.AperFunction,ComponentPad*%
%ADD12O,1.800000X2.600000*%
%TD*%
%TA.AperFunction,ComponentPad*%
%ADD13R,1.800000X2.600000*%
%TD*%
%TA.AperFunction,ComponentPad*%
%ADD14O,1.600000X1.600000*%
%TD*%
%TA.AperFunction,ComponentPad*%
%ADD15C,1.600000*%
%TD*%
%TA.AperFunction,ComponentPad*%
%ADD16C,1.440000*%
%TD*%
%TA.AperFunction,ComponentPad*%
%ADD17C,2.500000*%
%TD*%
%TA.AperFunction,Conductor*%
%ADD18C,0.400000*%
%TD*%
%TA.AperFunction,Conductor*%
%ADD19C,1.000000*%
%TD*%
%TA.AperFunction,Conductor*%
%ADD20C,0.254000*%
%TD*%
%TA.AperFunction,Conductor*%
%ADD21C,0.100000*%
%TD*%
G04 APERTURE END LIST*
D10*
%TO.P,esp8266 D1 Wemos mini,9*%
%TO.N,Net-(esp8266-Pad9)*%
X161290000Y-74930000D03*
%TO.P,esp8266 D1 Wemos mini,10*%
%TO.N,Net-(esp8266-Pad10)*%
X163830000Y-74930000D03*
%TO.P,esp8266 D1 Wemos mini,11*%
%TO.N,Net-(esp8266-Pad11)*%
X166370000Y-74930000D03*
%TO.P,esp8266 D1 Wemos mini,12*%
%TO.N,Net-(LCD1-Pad11)*%
X168910000Y-74930000D03*
%TO.P,esp8266 D1 Wemos mini,13*%
%TO.N,Net-(LCD1-Pad6)*%
X171450000Y-74930000D03*
%TO.P,esp8266 D1 Wemos mini,14*%
%TO.N,Net-(LCD1-Pad4)*%
X173990000Y-74930000D03*
%TO.P,esp8266 D1 Wemos mini,15*%
%TO.N,Net-(R_btn1-Pad2)*%
X176530000Y-74930000D03*
%TO.P,esp8266 D1 Wemos mini,16*%
%TO.N,Net-(esp8266-Pad16)*%
X179070000Y-74930000D03*
%TO.P,esp8266 D1 Wemos mini,1*%
%TO.N,Net-(DIM1-Pad3)*%
X179070000Y-97790000D03*
%TO.P,esp8266 D1 Wemos mini,2*%
%TO.N,Net-(DIM1-Pad1)*%
X176530000Y-97790000D03*
%TO.P,esp8266 D1 Wemos mini,3*%
%TO.N,Net-(esp8266-Pad3)*%
X173990000Y-97790000D03*
%TO.P,esp8266 D1 Wemos mini,4*%
%TO.N,Net-(LCD1-Pad14)*%
X171450000Y-97790000D03*
%TO.P,esp8266 D1 Wemos mini,5*%
%TO.N,Net-(LCD1-Pad13)*%
X168910000Y-97790000D03*
%TO.P,esp8266 D1 Wemos mini,6*%
%TO.N,Net-(LCD1-Pad12)*%
X166370000Y-97790000D03*
%TO.P,esp8266 D1 Wemos mini,7*%
%TO.N,Net-(esp8266-Pad7)*%
X163830000Y-97790000D03*
%TO.P,esp8266 D1 Wemos mini,8*%
%TO.N,Net-(esp8266-Pad8)*%
X161290000Y-97790000D03*
%TD*%
D11*
%TO.P,LCD1,*%
%TO.N,*%
X185070000Y-66040000D03*
X185069480Y-97040700D03*
X110070900Y-97040700D03*
X110070900Y-66040000D03*
D12*
%TO.P,LCD1,16*%
%TO.N,Net-(DIM1-Pad1)*%
X153670000Y-66040000D03*
%TO.P,LCD1,15*%
%TO.N,Net-(DIM1-Pad2)*%
X151130000Y-66040000D03*
%TO.P,LCD1,14*%
%TO.N,Net-(LCD1-Pad14)*%
X148590000Y-66040000D03*
%TO.P,LCD1,13*%
%TO.N,Net-(LCD1-Pad13)*%
X146050000Y-66040000D03*
%TO.P,LCD1,12*%
%TO.N,Net-(LCD1-Pad12)*%
X143510000Y-66040000D03*
%TO.P,LCD1,11*%
%TO.N,Net-(LCD1-Pad11)*%
X140970000Y-66040000D03*
%TO.P,LCD1,10*%
%TO.N,Net-(LCD1-Pad10)*%
X138430000Y-66040000D03*
%TO.P,LCD1,9*%
%TO.N,Net-(LCD1-Pad9)*%
X135890000Y-66040000D03*
%TO.P,LCD1,8*%
%TO.N,Net-(LCD1-Pad8)*%
X133350000Y-66040000D03*
%TO.P,LCD1,7*%
%TO.N,Net-(LCD1-Pad7)*%
X130810000Y-66040000D03*
%TO.P,LCD1,6*%
%TO.N,Net-(LCD1-Pad6)*%
X128270000Y-66040000D03*
%TO.P,LCD1,5*%
%TO.N,Net-(DIM1-Pad1)*%
X125730000Y-66040000D03*
%TO.P,LCD1,4*%
%TO.N,Net-(LCD1-Pad4)*%
X123190000Y-66040000D03*
%TO.P,LCD1,3*%
%TO.N,Net-(GND1-Pad1)*%
X120650000Y-66040000D03*
%TO.P,LCD1,2*%
%TO.N,Net-(DIM1-Pad3)*%
X118110000Y-66040000D03*
D13*
%TO.P,LCD1,1*%
%TO.N,Net-(DIM1-Pad1)*%
X115570000Y-66040000D03*
%TD*%
D14*
%TO.P,R_VDD,2*%
%TO.N,Net-(DIM1-Pad3)*%
X120650000Y-92710000D03*
D15*
%TO.P,R_VDD,1*%
%TO.N,Net-(GND1-Pad1)*%
X120650000Y-82550000D03*
%TD*%
D14*
%TO.P,R_BTN,2*%
%TO.N,Net-(R_btn1-Pad2)*%
X85090000Y-78740000D03*
D15*
%TO.P,R_BTN,1*%
%TO.N,Net-(DIM1-Pad1)*%
X85090000Y-68580000D03*
%TD*%
D14*
%TO.P,R_GND,2*%
%TO.N,Net-(DIM1-Pad1)*%
X125730000Y-92710000D03*
D15*
%TO.P,R_GND,1*%
%TO.N,Net-(GND1-Pad1)*%
X125730000Y-82550000D03*
%TD*%
D16*
%TO.P,DIM1,1*%
%TO.N,Net-(DIM1-Pad1)*%
X91440000Y-68580000D03*
%TO.P,DIM1,2*%
%TO.N,Net-(DIM1-Pad2)*%
X93980000Y-71120000D03*
%TO.P,DIM1,3*%
%TO.N,Net-(DIM1-Pad3)*%
X96520000Y-68580000D03*
%TD*%
D17*
%TO.P,btn1,2*%
%TO.N,Net-(DIM1-Pad3)*%
X96520000Y-85090000D03*
%TO.P,btn1,1*%
%TO.N,Net-(R_btn1-Pad2)*%
X90170000Y-87630000D03*
%TD*%
D18*
%TO.N,*%
X185070000Y-66040000D02*
X185420000Y-66040000D01*
D19*
X107200700Y-97040700D02*
X110070900Y-97040700D01*
X110070900Y-97040700D02*
X112509300Y-97040700D01*
X110070900Y-97040700D02*
X110070900Y-94399100D01*
X110070900Y-97040700D02*
X110070900Y-99910900D01*
X110070900Y-66040000D02*
X107950000Y-66040000D01*
X110070900Y-66040000D02*
X113030000Y-66040000D01*
X110070900Y-66040000D02*
X110070900Y-63919100D01*
X110070900Y-66040000D02*
X110070900Y-68160900D01*
X185070000Y-63850000D02*
X185070000Y-66040000D01*
X185070000Y-66040000D02*
X181610000Y-66040000D01*
X185070000Y-66040000D02*
X185070000Y-68230000D01*
X185069480Y-97040700D02*
X185069480Y-94330520D01*
X185069480Y-97040700D02*
X182130700Y-97040700D01*
X185069480Y-97040700D02*
X185069480Y-99979480D01*
D18*
%TO.N,Net-(DIM1-Pad2)*%
X93980000Y-71120000D02*
X149860000Y-71120000D01*
X151130000Y-69850000D02*
X151130000Y-66040000D01*
X149860000Y-71120000D02*
X151130000Y-69850000D01*
%TO.N,Net-(DIM1-Pad1)*%
X176530000Y-97790000D02*
X172720000Y-101600000D01*
X172720000Y-101600000D02*
X134620000Y-101600000D01*
X134620000Y-101600000D02*
X130810000Y-101600000D01*
X125730000Y-96520000D02*
X130810000Y-101600000D01*
X125730000Y-92710000D02*
X125730000Y-96520000D01*
X176530000Y-97790000D02*
X176530000Y-91440000D01*
X176530000Y-91440000D02*
X182880000Y-85090000D01*
X182880000Y-85090000D02*
X182880000Y-74930000D01*
X173990000Y-66040000D02*
X153670000Y-66040000D01*
X182880000Y-74930000D02*
X173990000Y-66040000D01*
X115570000Y-66040000D02*
X115570000Y-63500000D01*
X115570000Y-63500000D02*
X114300000Y-62230000D01*
X114300000Y-62230000D02*
X95250000Y-62230000D01*
X95250000Y-62230000D02*
X91440000Y-66040000D01*
X91440000Y-68580000D02*
X91440000Y-66040000D01*
X91440000Y-68580000D02*
X85090000Y-68580000D01*
X125730000Y-66040000D02*
X125730000Y-63500000D01*
X125730000Y-63500000D02*
X124460000Y-62230000D01*
X124460000Y-62230000D02*
X114300000Y-62230000D01*
X153670000Y-63500000D02*
X153670000Y-66040000D01*
X152400000Y-62230000D02*
X153670000Y-63500000D01*
X124460000Y-62230000D02*
X152400000Y-62230000D01*
%TO.N,Net-(R_btn1-Pad2)*%
X85090000Y-82550000D02*
X90170000Y-87630000D01*
X85090000Y-78740000D02*
X85090000Y-82550000D01*
X176530000Y-77470000D02*
X176530000Y-74930000D01*
X166370000Y-87630000D02*
X176530000Y-77470000D01*
X90170000Y-87630000D02*
X166370000Y-87630000D01*
%TD*%
D20*
%TO.N,Net-(DIM1-Pad1)*%
X187300001Y-57117581D02*
X187300000Y-105377581D01*
X187300000Y-105377582D01*
X187300001Y-107290000D01*
X78130000Y-107290000D01*
X78130000Y-103919872D01*
X79045000Y-103919872D01*
X79045000Y-104360128D01*
X79130890Y-104791925D01*
X79299369Y-105198669D01*
X79543962Y-105564729D01*
X79855271Y-105876038D01*
X80221331Y-106120631D01*
X80628075Y-106289110D01*
X81059872Y-106375000D01*
X81500128Y-106375000D01*
X81931925Y-106289110D01*
X82338669Y-106120631D01*
X82704729Y-105876038D01*
X83016038Y-105564729D01*
X83260631Y-105198669D01*
X83429110Y-104791925D01*
X83515000Y-104360128D01*
X83515000Y-103919872D01*
X181915000Y-103919872D01*
X181915000Y-104360128D01*
X182000890Y-104791925D01*
X182169369Y-105198669D01*
X182413962Y-105564729D01*
X182725271Y-105876038D01*
X183091331Y-106120631D01*
X183498075Y-106289110D01*
X183929872Y-106375000D01*
X184370128Y-106375000D01*
X184801925Y-106289110D01*
X185208669Y-106120631D01*
X185574729Y-105876038D01*
X185886038Y-105564729D01*
X186130631Y-105198669D01*
X186299110Y-104791925D01*
X186385000Y-104360128D01*
X186385000Y-103919872D01*
X186299110Y-103488075D01*
X186130631Y-103081331D01*
X185886038Y-102715271D01*
X185574729Y-102403962D01*
X185208669Y-102159369D01*
X184801925Y-101990890D01*
X184370128Y-101905000D01*
X183929872Y-101905000D01*
X183498075Y-101990890D01*
X183091331Y-102159369D01*
X182725271Y-102403962D01*
X182413962Y-102715271D01*
X182169369Y-103081331D01*
X182000890Y-103488075D01*
X181915000Y-103919872D01*
X83515000Y-103919872D01*
X83429110Y-103488075D01*
X83260631Y-103081331D01*
X83016038Y-102715271D01*
X82704729Y-102403962D01*
X82338669Y-102159369D01*
X81931925Y-101990890D01*
X81500128Y-101905000D01*
X81059872Y-101905000D01*
X80628075Y-101990890D01*
X80221331Y-102159369D01*
X79855271Y-102403962D01*
X79543962Y-102715271D01*
X79299369Y-103081331D01*
X79130890Y-103488075D01*
X79045000Y-103919872D01*
X78130000Y-103919872D01*
X78130000Y-96830421D01*
X107935900Y-96830421D01*
X107935900Y-97250979D01*
X108017947Y-97663456D01*
X108178888Y-98052002D01*
X108412537Y-98401683D01*
X108709917Y-98699063D01*
X109059598Y-98932712D01*
X109448144Y-99093653D01*
X109860621Y-99175700D01*
X110281179Y-99175700D01*
X110693656Y-99093653D01*
X111082202Y-98932712D01*
X111431883Y-98699063D01*
X111729263Y-98401683D01*
X111962912Y-98052002D01*
X112123853Y-97663456D01*
X112128754Y-97638816D01*
X159755000Y-97638816D01*
X159755000Y-97941184D01*
X159813989Y-98237743D01*
X159929701Y-98517095D01*
X160097688Y-98768505D01*
X160311495Y-98982312D01*
X160562905Y-99150299D01*
X160842257Y-99266011D01*
X161138816Y-99325000D01*
X161441184Y-99325000D01*
X161737743Y-99266011D01*
X162017095Y-99150299D01*
X162268505Y-98982312D01*
X162482312Y-98768505D01*
X162560000Y-98652237D01*
X162637688Y-98768505D01*
X162851495Y-98982312D01*
X163102905Y-99150299D01*
X163382257Y-99266011D01*
X163678816Y-99325000D01*
X163981184Y-99325000D01*
X164277743Y-99266011D01*
X164557095Y-99150299D01*
X164808505Y-98982312D01*
X165022312Y-98768505D01*
X165100000Y-98652237D01*
X165177688Y-98768505D01*
X165391495Y-98982312D01*
X165642905Y-99150299D01*
X165922257Y-99266011D01*
X166218816Y-99325000D01*
X166521184Y-99325000D01*
X166817743Y-99266011D01*
X167097095Y-99150299D01*
X167348505Y-98982312D01*
X167562312Y-98768505D01*
X167640000Y-98652237D01*
X167717688Y-98768505D01*
X167931495Y-98982312D01*
X168182905Y-99150299D01*
X168462257Y-99266011D01*
X168758816Y-99325000D01*
X169061184Y-99325000D01*
X169357743Y-99266011D01*
X169637095Y-99150299D01*
X169888505Y-98982312D01*
X170102312Y-98768505D01*
X170180000Y-98652237D01*
X170257688Y-98768505D01*
X170471495Y-98982312D01*
X170722905Y-99150299D01*
X171002257Y-99266011D01*
X171298816Y-99325000D01*
X171601184Y-99325000D01*
X171897743Y-99266011D01*
X172177095Y-99150299D01*
X172428505Y-98982312D01*
X172642312Y-98768505D01*
X172720000Y-98652237D01*
X172797688Y-98768505D01*
X173011495Y-98982312D01*
X173262905Y-99150299D01*
X173542257Y-99266011D01*
X173838816Y-99325000D01*
X174141184Y-99325000D01*
X174437743Y-99266011D01*
X174717095Y-99150299D01*
X174968505Y-98982312D01*
X175096737Y-98854080D01*
X175645525Y-98854080D01*
X175729208Y-99108261D01*
X176001775Y-99239158D01*
X176294642Y-99314365D01*
X176596553Y-99330991D01*
X176895907Y-99288397D01*
X177181199Y-99188222D01*
X177330792Y-99108261D01*
X177414475Y-98854080D01*
X176530000Y-97969605D01*
X175645525Y-98854080D01*
X175096737Y-98854080D01*
X175182312Y-98768505D01*
X175284951Y-98614895D01*
X175465920Y-98674475D01*
X176350395Y-97790000D01*
X176709605Y-97790000D01*
X177594080Y-98674475D01*
X177775049Y-98614895D01*
X177877688Y-98768505D01*
X178091495Y-98982312D01*
X178342905Y-99150299D01*
X178622257Y-99266011D01*
X178918816Y-99325000D01*
X179221184Y-99325000D01*
X179517743Y-99266011D01*
X179797095Y-99150299D01*
X180048505Y-98982312D01*
X180262312Y-98768505D01*
X180430299Y-98517095D01*
X180546011Y-98237743D01*
X180605000Y-97941184D01*
X180605000Y-97638816D01*
X180546011Y-97342257D01*
X180430299Y-97062905D01*
X180274958Y-96830421D01*
X182934480Y-96830421D01*
X182934480Y-97250979D01*
X183016527Y-97663456D01*
X183177468Y-98052002D01*
X183411117Y-98401683D01*
X183708497Y-98699063D01*
X184058178Y-98932712D01*
X184446724Y-99093653D01*
X184859201Y-99175700D01*
X185279759Y-99175700D01*
X185692236Y-99093653D01*
X186080782Y-98932712D01*
X186430463Y-98699063D01*
X186727843Y-98401683D01*
X186961492Y-98052002D01*
X187122433Y-97663456D01*
X187204480Y-97250979D01*
X187204480Y-96830421D01*
X187122433Y-96417944D01*
X186961492Y-96029398D01*
X186727843Y-95679717D01*
X186430463Y-95382337D01*
X186080782Y-95148688D01*
X185692236Y-94987747D01*
X185279759Y-94905700D01*
X184859201Y-94905700D01*
X184446724Y-94987747D01*
X184058178Y-95148688D01*
X183708497Y-95382337D01*
X183411117Y-95679717D01*
X183177468Y-96029398D01*
X183016527Y-96417944D01*
X182934480Y-96830421D01*
X180274958Y-96830421D01*
X180262312Y-96811495D01*
X180048505Y-96597688D01*
X179797095Y-96429701D01*
X179517743Y-96313989D01*
X179221184Y-96255000D01*
X178918816Y-96255000D01*
X178622257Y-96313989D01*
X178342905Y-96429701D01*
X178091495Y-96597688D01*
X177877688Y-96811495D01*
X177775049Y-96965105D01*
X177594080Y-96905525D01*
X176709605Y-97790000D01*
X176350395Y-97790000D01*
X175465920Y-96905525D01*
X175284951Y-96965105D01*
X175182312Y-96811495D01*
X175096737Y-96725920D01*
X175645525Y-96725920D01*
X176530000Y-97610395D01*
X177414475Y-96725920D01*
X177330792Y-96471739D01*
X177058225Y-96340842D01*
X176765358Y-96265635D01*
X176463447Y-96249009D01*
X176164093Y-96291603D01*
X175878801Y-96391778D01*
X175729208Y-96471739D01*
X175645525Y-96725920D01*
X175096737Y-96725920D01*
X174968505Y-96597688D01*
X174717095Y-96429701D01*
X174437743Y-96313989D01*
X174141184Y-96255000D01*
X173838816Y-96255000D01*
X173542257Y-96313989D01*
X173262905Y-96429701D01*
X173011495Y-96597688D01*
X172797688Y-96811495D01*
X172720000Y-96927763D01*
X172642312Y-96811495D01*
X172428505Y-96597688D01*
X172177095Y-96429701D01*
X171897743Y-96313989D01*
X171601184Y-96255000D01*
X171298816Y-96255000D01*
X171002257Y-96313989D01*
X170722905Y-96429701D01*
X170471495Y-96597688D01*
X170257688Y-96811495D01*
X170180000Y-96927763D01*
X170102312Y-96811495D01*
X169888505Y-96597688D01*
X169637095Y-96429701D01*
X169357743Y-96313989D01*
X169061184Y-96255000D01*
X168758816Y-96255000D01*
X168462257Y-96313989D01*
X168182905Y-96429701D01*
X167931495Y-96597688D01*
X167717688Y-96811495D01*
X167640000Y-96927763D01*
X167562312Y-96811495D01*
X167348505Y-96597688D01*
X167097095Y-96429701D01*
X166817743Y-96313989D01*
X166521184Y-96255000D01*
X166218816Y-96255000D01*
X165922257Y-96313989D01*
X165642905Y-96429701D01*
X165391495Y-96597688D01*
X165177688Y-96811495D01*
X165100000Y-96927763D01*
X165022312Y-96811495D01*
X164808505Y-96597688D01*
X164557095Y-96429701D01*
X164277743Y-96313989D01*
X163981184Y-96255000D01*
X163678816Y-96255000D01*
X163382257Y-96313989D01*
X163102905Y-96429701D01*
X162851495Y-96597688D01*
X162637688Y-96811495D01*
X162560000Y-96927763D01*
X162482312Y-96811495D01*
X162268505Y-96597688D01*
X162017095Y-96429701D01*
X161737743Y-96313989D01*
X161441184Y-96255000D01*
X161138816Y-96255000D01*
X160842257Y-96313989D01*
X160562905Y-96429701D01*
X160311495Y-96597688D01*
X160097688Y-96811495D01*
X159929701Y-97062905D01*
X159813989Y-97342257D01*
X159755000Y-97638816D01*
X112128754Y-97638816D01*
X112205900Y-97250979D01*
X112205900Y-96830421D01*
X112123853Y-96417944D01*
X111962912Y-96029398D01*
X111729263Y-95679717D01*
X111431883Y-95382337D01*
X111082202Y-95148688D01*
X110693656Y-94987747D01*
X110281179Y-94905700D01*
X109860621Y-94905700D01*
X109448144Y-94987747D01*
X109059598Y-95148688D01*
X108709917Y-95382337D01*
X108412537Y-95679717D01*
X108178888Y-96029398D01*
X108017947Y-96417944D01*
X107935900Y-96830421D01*
X78130000Y-96830421D01*
X78130000Y-78598665D01*
X83655000Y-78598665D01*
X83655000Y-78881335D01*
X83710147Y-79158574D01*
X83818320Y-79419727D01*
X83975363Y-79654759D01*
X84175241Y-79854637D01*
X84255000Y-79907930D01*
X84255001Y-82508972D01*
X84250960Y-82550000D01*
X84267082Y-82713688D01*
X84314828Y-82871086D01*
X84314829Y-82871087D01*
X84392365Y-83016146D01*
X84496710Y-83143291D01*
X84528574Y-83169441D01*
X88381415Y-87022283D01*
X88357439Y-87080166D01*
X88285000Y-87444344D01*
X88285000Y-87815656D01*
X88357439Y-88179834D01*
X88499534Y-88522882D01*
X88609939Y-88688114D01*
X88459549Y-88718029D01*
X88184747Y-88831856D01*
X87937431Y-88997107D01*
X87727107Y-89207431D01*
X87561856Y-89454747D01*
X87448029Y-89729549D01*
X87390000Y-90021278D01*
X87390000Y-90318722D01*
X87448029Y-90610451D01*
X87561856Y-90885253D01*
X87727107Y-91132569D01*
X87937431Y-91342893D01*
X88184747Y-91508144D01*
X88459549Y-91621971D01*
X88751278Y-91680000D01*
X89048722Y-91680000D01*
X89340451Y-91621971D01*
X89615253Y-91508144D01*
X89862569Y-91342893D01*
X90072893Y-91132569D01*
X90238144Y-90885253D01*
X90351971Y-90610451D01*
X90410000Y-90318722D01*
X90410000Y-90021278D01*
X90351971Y-89729549D01*
X90263102Y-89515000D01*
X90355656Y-89515000D01*
X90719834Y-89442561D01*
X91062882Y-89300466D01*
X91371618Y-89094175D01*
X91634175Y-88831618D01*
X91840466Y-88522882D01*
X91864441Y-88465000D01*
X91958547Y-88465000D01*
X91933262Y-88490285D01*
X91644893Y-88921859D01*
X91446261Y-89401399D01*
X91345000Y-89910475D01*
X91345000Y-90429525D01*
X91446261Y-90938601D01*
X91644893Y-91418141D01*
X91933262Y-91849715D01*
X92300285Y-92216738D01*
X92731859Y-92505107D01*
X93211399Y-92703739D01*
X93720475Y-92805000D01*
X94239525Y-92805000D01*
X94748601Y-92703739D01*
X95074698Y-92568665D01*
X119215000Y-92568665D01*
X119215000Y-92851335D01*
X119270147Y-93128574D01*
X119378320Y-93389727D01*
X119535363Y-93624759D01*
X119735241Y-93824637D01*
X119970273Y-93981680D01*
X120231426Y-94089853D01*
X120508665Y-94145000D01*
X120791335Y-94145000D01*
X121068574Y-94089853D01*
X121329727Y-93981680D01*
X121564759Y-93824637D01*
X121764637Y-93624759D01*
X121921680Y-93389727D01*
X122029853Y-93128574D01*
X122043684Y-93059040D01*
X124338091Y-93059040D01*
X124432930Y-93323881D01*
X124577615Y-93565131D01*
X124766586Y-93773519D01*
X124992580Y-93941037D01*
X125246913Y-94061246D01*
X125380961Y-94101904D01*
X125603000Y-93979915D01*
X125603000Y-92837000D01*
X125857000Y-92837000D01*
X125857000Y-93979915D01*
X126079039Y-94101904D01*
X126213087Y-94061246D01*
X126467420Y-93941037D01*
X126693414Y-93773519D01*
X126882385Y-93565131D01*
X127027070Y-93323881D01*
X127121909Y-93059040D01*
X127000624Y-92837000D01*
X125857000Y-92837000D01*
X125603000Y-92837000D01*
X124459376Y-92837000D01*
X124338091Y-93059040D01*
X122043684Y-93059040D01*
X122085000Y-92851335D01*
X122085000Y-92568665D01*
X122043685Y-92360960D01*
X124338091Y-92360960D01*
X124459376Y-92583000D01*
X125603000Y-92583000D01*
X125603000Y-91440085D01*
X125857000Y-91440085D01*
X125857000Y-92583000D01*
X127000624Y-92583000D01*
X127121909Y-92360960D01*
X127027070Y-92096119D01*
X126882385Y-91854869D01*
X126693414Y-91646481D01*
X126467420Y-91478963D01*
X126213087Y-91358754D01*
X126079039Y-91318096D01*
X125857000Y-91440085D01*
X125603000Y-91440085D01*
X125380961Y-91318096D01*
X125246913Y-91358754D01*
X124992580Y-91478963D01*
X124766586Y-91646481D01*
X124577615Y-91854869D01*
X124432930Y-92096119D01*
X124338091Y-92360960D01*
X122043685Y-92360960D01*
X122029853Y-92291426D01*
X121921680Y-92030273D01*
X121764637Y-91795241D01*
X121564759Y-91595363D01*
X121329727Y-91438320D01*
X121068574Y-91330147D01*
X120791335Y-91275000D01*
X120508665Y-91275000D01*
X120231426Y-91330147D01*
X119970273Y-91438320D01*
X119735241Y-91595363D01*
X119535363Y-91795241D01*
X119378320Y-92030273D01*
X119270147Y-92291426D01*
X119215000Y-92568665D01*
X95074698Y-92568665D01*
X95228141Y-92505107D01*
X95659715Y-92216738D01*
X96026738Y-91849715D01*
X96315107Y-91418141D01*
X96513739Y-90938601D01*
X96615000Y-90429525D01*
X96615000Y-90021278D01*
X97550000Y-90021278D01*
X97550000Y-90318722D01*
X97608029Y-90610451D01*
X97721856Y-90885253D01*
X97887107Y-91132569D01*
X98097431Y-91342893D01*
X98344747Y-91508144D01*
X98619549Y-91621971D01*
X98911278Y-91680000D01*
X99208722Y-91680000D01*
X99500451Y-91621971D01*
X99775253Y-91508144D01*
X100022569Y-91342893D01*
X100232893Y-91132569D01*
X100398144Y-90885253D01*
X100511971Y-90610451D01*
X100570000Y-90318722D01*
X100570000Y-90021278D01*
X100511971Y-89729549D01*
X100398144Y-89454747D01*
X100232893Y-89207431D01*
X100022569Y-88997107D01*
X99775253Y-88831856D01*
X99500451Y-88718029D01*
X99208722Y-88660000D01*
X98911278Y-88660000D01*
X98619549Y-88718029D01*
X98344747Y-88831856D01*
X98097431Y-88997107D01*
X97887107Y-89207431D01*
X97721856Y-89454747D01*
X97608029Y-89729549D01*
X97550000Y-90021278D01*
X96615000Y-90021278D01*
X96615000Y-89910475D01*
X96513739Y-89401399D01*
X96315107Y-88921859D01*
X96026738Y-88490285D01*
X96001453Y-88465000D01*
X166328982Y-88465000D01*
X166370000Y-88469040D01*
X166411018Y-88465000D01*
X166411019Y-88465000D01*
X166533689Y-88452918D01*
X166691087Y-88405172D01*
X166836146Y-88327636D01*
X166963291Y-88223291D01*
X166989446Y-88191421D01*
X177091433Y-78089436D01*
X177123291Y-78063291D01*
X177227636Y-77936146D01*
X177305172Y-77791087D01*
X177352918Y-77633689D01*
X177365000Y-77511019D01*
X177365000Y-77511018D01*
X177369040Y-77470000D01*
X177365000Y-77428982D01*
X177365000Y-76218199D01*
X177508505Y-76122312D01*
X177722312Y-75908505D01*
X177800000Y-75792237D01*
X177877688Y-75908505D01*
X178091495Y-76122312D01*
X178342905Y-76290299D01*
X178622257Y-76406011D01*
X178918816Y-76465000D01*
X179221184Y-76465000D01*
X179517743Y-76406011D01*
X179797095Y-76290299D01*
X180048505Y-76122312D01*
X180262312Y-75908505D01*
X180430299Y-75657095D01*
X180546011Y-75377743D01*
X180605000Y-75081184D01*
X180605000Y-74778816D01*
X180546011Y-74482257D01*
X180430299Y-74202905D01*
X180262312Y-73951495D01*
X180048505Y-73737688D01*
X179797095Y-73569701D01*
X179517743Y-73453989D01*
X179221184Y-73395000D01*
X178918816Y-73395000D01*
X178622257Y-73453989D01*
X178342905Y-73569701D01*
X178091495Y-73737688D01*
X177877688Y-73951495D01*
X177800000Y-74067763D01*
X177722312Y-73951495D01*
X177508505Y-73737688D01*
X177257095Y-73569701D01*
X176977743Y-73453989D01*
X176681184Y-73395000D01*
X176378816Y-73395000D01*
X176082257Y-73453989D01*
X175802905Y-73569701D01*
X175551495Y-73737688D01*
X175337688Y-73951495D01*
X175260000Y-74067763D01*
X175182312Y-73951495D01*
X174968505Y-73737688D01*
X174717095Y-73569701D01*
X174437743Y-73453989D01*
X174141184Y-73395000D01*
X173838816Y-73395000D01*
X173542257Y-73453989D01*
X173262905Y-73569701D01*
X173011495Y-73737688D01*
X172797688Y-73951495D01*
X172720000Y-74067763D01*
X172642312Y-73951495D01*
X172428505Y-73737688D01*
X172177095Y-73569701D01*
X171897743Y-73453989D01*
X171601184Y-73395000D01*
X171298816Y-73395000D01*
X171002257Y-73453989D01*
X170722905Y-73569701D01*
X170471495Y-73737688D01*
X170257688Y-73951495D01*
X170180000Y-74067763D01*
X170102312Y-73951495D01*
X169888505Y-73737688D01*
X169637095Y-73569701D01*
X169357743Y-73453989D01*
X169061184Y-73395000D01*
X168758816Y-73395000D01*
X168462257Y-73453989D01*
X168182905Y-73569701D01*
X167931495Y-73737688D01*
X167717688Y-73951495D01*
X167640000Y-74067763D01*
X167562312Y-73951495D01*
X167348505Y-73737688D01*
X167097095Y-73569701D01*
X166817743Y-73453989D01*
X166521184Y-73395000D01*
X166218816Y-73395000D01*
X165922257Y-73453989D01*
X165642905Y-73569701D01*
X165391495Y-73737688D01*
X165177688Y-73951495D01*
X165100000Y-74067763D01*
X165022312Y-73951495D01*
X164808505Y-73737688D01*
X164557095Y-73569701D01*
X164277743Y-73453989D01*
X163981184Y-73395000D01*
X163678816Y-73395000D01*
X163382257Y-73453989D01*
X163102905Y-73569701D01*
X162851495Y-73737688D01*
X162637688Y-73951495D01*
X162560000Y-74067763D01*
X162482312Y-73951495D01*
X162268505Y-73737688D01*
X162017095Y-73569701D01*
X161737743Y-73453989D01*
X161441184Y-73395000D01*
X161138816Y-73395000D01*
X160842257Y-73453989D01*
X160562905Y-73569701D01*
X160311495Y-73737688D01*
X160097688Y-73951495D01*
X159929701Y-74202905D01*
X159813989Y-74482257D01*
X159755000Y-74778816D01*
X159755000Y-75081184D01*
X159813989Y-75377743D01*
X159929701Y-75657095D01*
X160097688Y-75908505D01*
X160311495Y-76122312D01*
X160562905Y-76290299D01*
X160842257Y-76406011D01*
X161138816Y-76465000D01*
X161441184Y-76465000D01*
X161737743Y-76406011D01*
X162017095Y-76290299D01*
X162268505Y-76122312D01*
X162482312Y-75908505D01*
X162560000Y-75792237D01*
X162637688Y-75908505D01*
X162851495Y-76122312D01*
X163102905Y-76290299D01*
X163382257Y-76406011D01*
X163678816Y-76465000D01*
X163981184Y-76465000D01*
X164277743Y-76406011D01*
X164557095Y-76290299D01*
X164808505Y-76122312D01*
X165022312Y-75908505D01*
X165100000Y-75792237D01*
X165177688Y-75908505D01*
X165391495Y-76122312D01*
X165642905Y-76290299D01*
X165922257Y-76406011D01*
X166218816Y-76465000D01*
X166521184Y-76465000D01*
X166817743Y-76406011D01*
X167097095Y-76290299D01*
X167348505Y-76122312D01*
X167562312Y-75908505D01*
X167640000Y-75792237D01*
X167717688Y-75908505D01*
X167931495Y-76122312D01*
X168182905Y-76290299D01*
X168462257Y-76406011D01*
X168758816Y-76465000D01*
X169061184Y-76465000D01*
X169357743Y-76406011D01*
X169637095Y-76290299D01*
X169888505Y-76122312D01*
X170102312Y-75908505D01*
X170180000Y-75792237D01*
X170257688Y-75908505D01*
X170471495Y-76122312D01*
X170722905Y-76290299D01*
X171002257Y-76406011D01*
X171298816Y-76465000D01*
X171601184Y-76465000D01*
X171897743Y-76406011D01*
X172177095Y-76290299D01*
X172428505Y-76122312D01*
X172642312Y-75908505D01*
X172720000Y-75792237D01*
X172797688Y-75908505D01*
X173011495Y-76122312D01*
X173262905Y-76290299D01*
X173542257Y-76406011D01*
X173838816Y-76465000D01*
X174141184Y-76465000D01*
X174437743Y-76406011D01*
X174717095Y-76290299D01*
X174968505Y-76122312D01*
X175182312Y-75908505D01*
X175260000Y-75792237D01*
X175337688Y-75908505D01*
X175551495Y-76122312D01*
X175695000Y-76218199D01*
X175695000Y-77124131D01*
X166024133Y-86795000D01*
X97329509Y-86795000D01*
X97412882Y-86760466D01*
X97721618Y-86554175D01*
X97984175Y-86291618D01*
X98190466Y-85982882D01*
X98332561Y-85639834D01*
X98405000Y-85275656D01*
X98405000Y-84904344D01*
X98332561Y-84540166D01*
X98190466Y-84197118D01*
X97984175Y-83888382D01*
X97721618Y-83625825D01*
X97412882Y-83419534D01*
X97069834Y-83277439D01*
X96705656Y-83205000D01*
X96334344Y-83205000D01*
X95970166Y-83277439D01*
X95627118Y-83419534D01*
X95318382Y-83625825D01*
X95055825Y-83888382D01*
X94849534Y-84197118D01*
X94707439Y-84540166D01*
X94635000Y-84904344D01*
X94635000Y-85275656D01*
X94707439Y-85639834D01*
X94849534Y-85982882D01*
X95055825Y-86291618D01*
X95318382Y-86554175D01*
X95627118Y-86760466D01*
X95710491Y-86795000D01*
X91864441Y-86795000D01*
X91840466Y-86737118D01*
X91634175Y-86428382D01*
X91371618Y-86165825D01*
X91062882Y-85959534D01*
X90719834Y-85817439D01*
X90355656Y-85745000D01*
X89984344Y-85745000D01*
X89620166Y-85817439D01*
X89562283Y-85841415D01*
X86129533Y-82408665D01*
X119215000Y-82408665D01*
X119215000Y-82691335D01*
X119270147Y-82968574D01*
X119378320Y-83229727D01*
X119535363Y-83464759D01*
X119735241Y-83664637D01*
X119970273Y-83821680D01*
X120231426Y-83929853D01*
X120508665Y-83985000D01*
X120791335Y-83985000D01*
X121068574Y-83929853D01*
X121329727Y-83821680D01*
X121564759Y-83664637D01*
X121764637Y-83464759D01*
X121921680Y-83229727D01*
X122029853Y-82968574D01*
X122085000Y-82691335D01*
X122085000Y-82408665D01*
X124295000Y-82408665D01*
X124295000Y-82691335D01*
X124350147Y-82968574D01*
X124458320Y-83229727D01*
X124615363Y-83464759D01*
X124815241Y-83664637D01*
X125050273Y-83821680D01*
X125311426Y-83929853D01*
X125588665Y-83985000D01*
X125871335Y-83985000D01*
X126148574Y-83929853D01*
X126409727Y-83821680D01*
X126644759Y-83664637D01*
X126844637Y-83464759D01*
X127001680Y-83229727D01*
X127109853Y-82968574D01*
X127165000Y-82691335D01*
X127165000Y-82408665D01*
X127109853Y-82131426D01*
X127001680Y-81870273D01*
X126844637Y-81635241D01*
X126644759Y-81435363D01*
X126409727Y-81278320D01*
X126148574Y-81170147D01*
X125871335Y-81115000D01*
X125588665Y-81115000D01*
X125311426Y-81170147D01*
X125050273Y-81278320D01*
X124815241Y-81435363D01*
X124615363Y-81635241D01*
X124458320Y-81870273D01*
X124350147Y-82131426D01*
X124295000Y-82408665D01*
X122085000Y-82408665D01*
X122029853Y-82131426D01*
X121921680Y-81870273D01*
X121764637Y-81635241D01*
X121564759Y-81435363D01*
X121329727Y-81278320D01*
X121068574Y-81170147D01*
X120791335Y-81115000D01*
X120508665Y-81115000D01*
X120231426Y-81170147D01*
X119970273Y-81278320D01*
X119735241Y-81435363D01*
X119535363Y-81635241D01*
X119378320Y-81870273D01*
X119270147Y-82131426D01*
X119215000Y-82408665D01*
X86129533Y-82408665D01*
X85925000Y-82204133D01*
X85925000Y-79907930D01*
X86004759Y-79854637D01*
X86204637Y-79654759D01*
X86361680Y-79419727D01*
X86469853Y-79158574D01*
X86525000Y-78881335D01*
X86525000Y-78598665D01*
X86469853Y-78321426D01*
X86361680Y-78060273D01*
X86204637Y-77825241D01*
X86004759Y-77625363D01*
X85769727Y-77468320D01*
X85508574Y-77360147D01*
X85231335Y-77305000D01*
X84948665Y-77305000D01*
X84671426Y-77360147D01*
X84410273Y-77468320D01*
X84175241Y-77625363D01*
X83975363Y-77825241D01*
X83818320Y-78060273D01*
X83710147Y-78321426D01*
X83655000Y-78598665D01*
X78130000Y-78598665D01*
X78130000Y-70986544D01*
X92625000Y-70986544D01*
X92625000Y-71253456D01*
X92677072Y-71515239D01*
X92779215Y-71761833D01*
X92927503Y-71983762D01*
X93116238Y-72172497D01*
X93338167Y-72320785D01*
X93584761Y-72422928D01*
X93846544Y-72475000D01*
X94113456Y-72475000D01*
X94375239Y-72422928D01*
X94621833Y-72320785D01*
X94843762Y-72172497D01*
X95032497Y-71983762D01*
X95051715Y-71955000D01*
X149818982Y-71955000D01*
X149860000Y-71959040D01*
X149901018Y-71955000D01*
X149901019Y-71955000D01*
X150023689Y-71942918D01*
X150181087Y-71895172D01*
X150326146Y-71817636D01*
X150453291Y-71713291D01*
X150479446Y-71681421D01*
X151691428Y-70469440D01*
X151723291Y-70443291D01*
X151827636Y-70316146D01*
X151905172Y-70171087D01*
X151952918Y-70013689D01*
X151965000Y-69891019D01*
X151965000Y-69891017D01*
X151969040Y-69850001D01*
X151965000Y-69808985D01*
X151965000Y-67734201D01*
X151986927Y-67722481D01*
X152220661Y-67530661D01*
X152404781Y-67306309D01*
X152464252Y-67398396D01*
X152674394Y-67615210D01*
X152922796Y-67786862D01*
X153199913Y-67906755D01*
X153305260Y-67931036D01*
X153543000Y-67810378D01*
X153543000Y-66167000D01*
X153797000Y-66167000D01*
X153797000Y-67810378D01*
X154034740Y-67931036D01*
X154140087Y-67906755D01*
X154417204Y-67786862D01*
X154665606Y-67615210D01*
X154875748Y-67398396D01*
X155039554Y-67144751D01*
X155150729Y-66864023D01*
X155205000Y-66567000D01*
X155205000Y-66167000D01*
X153797000Y-66167000D01*
X153543000Y-66167000D01*
X153523000Y-66167000D01*
X153523000Y-65913000D01*
X153543000Y-65913000D01*
X153543000Y-64269622D01*
X153797000Y-64269622D01*
X153797000Y-65913000D01*
X155205000Y-65913000D01*
X155205000Y-65829721D01*
X182935000Y-65829721D01*
X182935000Y-66250279D01*
X183017047Y-66662756D01*
X183177988Y-67051302D01*
X183411637Y-67400983D01*
X183709017Y-67698363D01*
X184058698Y-67932012D01*
X184447244Y-68092953D01*
X184859721Y-68175000D01*
X185280279Y-68175000D01*
X185692756Y-68092953D01*
X186081302Y-67932012D01*
X186430983Y-67698363D01*
X186728363Y-67400983D01*
X186962012Y-67051302D01*
X187122953Y-66662756D01*
X187205000Y-66250279D01*
X187205000Y-65829721D01*
X187122953Y-65417244D01*
X186962012Y-65028698D01*
X186728363Y-64679017D01*
X186430983Y-64381637D01*
X186081302Y-64147988D01*
X185692756Y-63987047D01*
X185280279Y-63905000D01*
X184859721Y-63905000D01*
X184447244Y-63987047D01*
X184058698Y-64147988D01*
X183709017Y-64381637D01*
X183411637Y-64679017D01*
X183177988Y-65028698D01*
X183017047Y-65417244D01*
X182935000Y-65829721D01*
X155205000Y-65829721D01*
X155205000Y-65513000D01*
X155150729Y-65215977D01*
X155039554Y-64935249D01*
X154875748Y-64681604D01*
X154665606Y-64464790D01*
X154417204Y-64293138D01*
X154140087Y-64173245D01*
X154034740Y-64148964D01*
X153797000Y-64269622D01*
X153543000Y-64269622D01*
X153305260Y-64148964D01*
X153199913Y-64173245D01*
X152922796Y-64293138D01*
X152674394Y-64464790D01*
X152464252Y-64681604D01*
X152404781Y-64773691D01*
X152220661Y-64549339D01*
X151986926Y-64357519D01*
X151720260Y-64214983D01*
X151430912Y-64127210D01*
X151130000Y-64097573D01*
X150829087Y-64127210D01*
X150539739Y-64214983D01*
X150273073Y-64357519D01*
X150039339Y-64549339D01*
X149860000Y-64767865D01*
X149680661Y-64549339D01*
X149446926Y-64357519D01*
X149180260Y-64214983D01*
X148890912Y-64127210D01*
X148590000Y-64097573D01*
X148289087Y-64127210D01*
X147999739Y-64214983D01*
X147733073Y-64357519D01*
X147499339Y-64549339D01*
X147320000Y-64767865D01*
X147140661Y-64549339D01*
X146906926Y-64357519D01*
X146640260Y-64214983D01*
X146350912Y-64127210D01*
X146050000Y-64097573D01*
X145749087Y-64127210D01*
X145459739Y-64214983D01*
X145193073Y-64357519D01*
X144959339Y-64549339D01*
X144780000Y-64767865D01*
X144600661Y-64549339D01*
X144366926Y-64357519D01*
X144100260Y-64214983D01*
X143810912Y-64127210D01*
X143510000Y-64097573D01*
X143209087Y-64127210D01*
X142919739Y-64214983D01*
X142653073Y-64357519D01*
X142419339Y-64549339D01*
X142240000Y-64767865D01*
X142060661Y-64549339D01*
X141826926Y-64357519D01*
X141560260Y-64214983D01*
X141270912Y-64127210D01*
X140970000Y-64097573D01*
X140669087Y-64127210D01*
X140379739Y-64214983D01*
X140113073Y-64357519D01*
X139879339Y-64549339D01*
X139700000Y-64767865D01*
X139520661Y-64549339D01*
X139286926Y-64357519D01*
X139020260Y-64214983D01*
X138730912Y-64127210D01*
X138430000Y-64097573D01*
X138129087Y-64127210D01*
X137839739Y-64214983D01*
X137573073Y-64357519D01*
X137339339Y-64549339D01*
X137160000Y-64767865D01*
X136980661Y-64549339D01*
X136746926Y-64357519D01*
X136480260Y-64214983D01*
X136190912Y-64127210D01*
X135890000Y-64097573D01*
X135589087Y-64127210D01*
X135299739Y-64214983D01*
X135033073Y-64357519D01*
X134799339Y-64549339D01*
X134620000Y-64767865D01*
X134440661Y-64549339D01*
X134206926Y-64357519D01*
X133940260Y-64214983D01*
X133650912Y-64127210D01*
X133350000Y-64097573D01*
X133049087Y-64127210D01*
X132759739Y-64214983D01*
X132493073Y-64357519D01*
X132259339Y-64549339D01*
X132080000Y-64767865D01*
X131900661Y-64549339D01*
X131666926Y-64357519D01*
X131400260Y-64214983D01*
X131110912Y-64127210D01*
X130810000Y-64097573D01*
X130509087Y-64127210D01*
X130219739Y-64214983D01*
X129953073Y-64357519D01*
X129719339Y-64549339D01*
X129540000Y-64767865D01*
X129360661Y-64549339D01*
X129126926Y-64357519D01*
X128860260Y-64214983D01*
X128570912Y-64127210D01*
X128270000Y-64097573D01*
X127969087Y-64127210D01*
X127679739Y-64214983D01*
X127413073Y-64357519D01*
X127179339Y-64549339D01*
X126995219Y-64773692D01*
X126935748Y-64681604D01*
X126725606Y-64464790D01*
X126477204Y-64293138D01*
X126200087Y-64173245D01*
X126094740Y-64148964D01*
X125857000Y-64269622D01*
X125857000Y-65913000D01*
X125877000Y-65913000D01*
X125877000Y-66167000D01*
X125857000Y-66167000D01*
X125857000Y-67810378D01*
X126094740Y-67931036D01*
X126200087Y-67906755D01*
X126477204Y-67786862D01*
X126725606Y-67615210D01*
X126935748Y-67398396D01*
X126995219Y-67306309D01*
X127179339Y-67530661D01*
X127413074Y-67722481D01*
X127679740Y-67865017D01*
X127969088Y-67952790D01*
X128270000Y-67982427D01*
X128570913Y-67952790D01*
X128860261Y-67865017D01*
X129126927Y-67722481D01*
X129360661Y-67530661D01*
X129540000Y-67312135D01*
X129719339Y-67530661D01*
X129953074Y-67722481D01*
X130219740Y-67865017D01*
X130509088Y-67952790D01*
X130810000Y-67982427D01*
X131110913Y-67952790D01*
X131400261Y-67865017D01*
X131666927Y-67722481D01*
X131900661Y-67530661D01*
X132080000Y-67312135D01*
X132259339Y-67530661D01*
X132493074Y-67722481D01*
X132759740Y-67865017D01*
X133049088Y-67952790D01*
X133350000Y-67982427D01*
X133650913Y-67952790D01*
X133940261Y-67865017D01*
X134206927Y-67722481D01*
X134440661Y-67530661D01*
X134620000Y-67312135D01*
X134799339Y-67530661D01*
X135033074Y-67722481D01*
X135299740Y-67865017D01*
X135589088Y-67952790D01*
X135890000Y-67982427D01*
X136190913Y-67952790D01*
X136480261Y-67865017D01*
X136746927Y-67722481D01*
X136980661Y-67530661D01*
X137160000Y-67312135D01*
X137339339Y-67530661D01*
X137573074Y-67722481D01*
X137839740Y-67865017D01*
X138129088Y-67952790D01*
X138430000Y-67982427D01*
X138730913Y-67952790D01*
X139020261Y-67865017D01*
X139286927Y-67722481D01*
X139520661Y-67530661D01*
X139700000Y-67312135D01*
X139879339Y-67530661D01*
X140113074Y-67722481D01*
X140379740Y-67865017D01*
X140669088Y-67952790D01*
X140970000Y-67982427D01*
X141270913Y-67952790D01*
X141560261Y-67865017D01*
X141826927Y-67722481D01*
X142060661Y-67530661D01*
X142240000Y-67312135D01*
X142419339Y-67530661D01*
X142653074Y-67722481D01*
X142919740Y-67865017D01*
X143209088Y-67952790D01*
X143510000Y-67982427D01*
X143810913Y-67952790D01*
X144100261Y-67865017D01*
X144366927Y-67722481D01*
X144600661Y-67530661D01*
X144780000Y-67312135D01*
X144959339Y-67530661D01*
X145193074Y-67722481D01*
X145459740Y-67865017D01*
X145749088Y-67952790D01*
X146050000Y-67982427D01*
X146350913Y-67952790D01*
X146640261Y-67865017D01*
X146906927Y-67722481D01*
X147140661Y-67530661D01*
X147320000Y-67312135D01*
X147499339Y-67530661D01*
X147733074Y-67722481D01*
X147999740Y-67865017D01*
X148289088Y-67952790D01*
X148590000Y-67982427D01*
X148890913Y-67952790D01*
X149180261Y-67865017D01*
X149446927Y-67722481D01*
X149680661Y-67530661D01*
X149860000Y-67312135D01*
X150039339Y-67530661D01*
X150273074Y-67722481D01*
X150295001Y-67734201D01*
X150295000Y-69504132D01*
X149514133Y-70285000D01*
X95051715Y-70285000D01*
X95032497Y-70256238D01*
X94843762Y-70067503D01*
X94621833Y-69919215D01*
X94375239Y-69817072D01*
X94113456Y-69765000D01*
X93846544Y-69765000D01*
X93584761Y-69817072D01*
X93338167Y-69919215D01*
X93116238Y-70067503D01*
X92927503Y-70256238D01*
X92779215Y-70478167D01*
X92677072Y-70724761D01*
X92625000Y-70986544D01*
X78130000Y-70986544D01*
X78130000Y-69572702D01*
X84276903Y-69572702D01*
X84348486Y-69816671D01*
X84603996Y-69937571D01*
X84878184Y-70006300D01*
X85160512Y-70020217D01*
X85440130Y-69978787D01*
X85706292Y-69883603D01*
X85831514Y-69816671D01*
X85903097Y-69572702D01*
X85845955Y-69515560D01*
X90684045Y-69515560D01*
X90745932Y-69751368D01*
X90987790Y-69864266D01*
X91247027Y-69927811D01*
X91513680Y-69939561D01*
X91777501Y-69899063D01*
X92028353Y-69807875D01*
X92134068Y-69751368D01*
X92195955Y-69515560D01*
X91440000Y-68759605D01*
X90684045Y-69515560D01*
X85845955Y-69515560D01*
X85090000Y-68759605D01*
X84276903Y-69572702D01*
X78130000Y-69572702D01*
X78130000Y-68650512D01*
X83649783Y-68650512D01*
X83691213Y-68930130D01*
X83786397Y-69196292D01*
X83853329Y-69321514D01*
X84097298Y-69393097D01*
X84910395Y-68580000D01*
X85269605Y-68580000D01*
X86082702Y-69393097D01*
X86326671Y-69321514D01*
X86447571Y-69066004D01*
X86516300Y-68791816D01*
X86523109Y-68653680D01*
X90080439Y-68653680D01*
X90120937Y-68917501D01*
X90212125Y-69168353D01*
X90268632Y-69274068D01*
X90504440Y-69335955D01*
X91260395Y-68580000D01*
X91619605Y-68580000D01*
X92375560Y-69335955D01*
X92611368Y-69274068D01*
X92724266Y-69032210D01*
X92787811Y-68772973D01*
X92799561Y-68506320D01*
X92790386Y-68446544D01*
X95165000Y-68446544D01*
X95165000Y-68713456D01*
X95217072Y-68975239D01*
X95319215Y-69221833D01*
X95467503Y-69443762D01*
X95656238Y-69632497D01*
X95878167Y-69780785D01*
X96124761Y-69882928D01*
X96386544Y-69935000D01*
X96653456Y-69935000D01*
X96915239Y-69882928D01*
X97161833Y-69780785D01*
X97383762Y-69632497D01*
X97572497Y-69443762D01*
X97720785Y-69221833D01*
X97822928Y-68975239D01*
X97875000Y-68713456D01*
X97875000Y-68446544D01*
X97822928Y-68184761D01*
X97720785Y-67938167D01*
X97572497Y-67716238D01*
X97383762Y-67527503D01*
X97161833Y-67379215D01*
X96915239Y-67277072D01*
X96653456Y-67225000D01*
X96386544Y-67225000D01*
X96124761Y-67277072D01*
X95878167Y-67379215D01*
X95656238Y-67527503D01*
X95467503Y-67716238D01*
X95319215Y-67938167D01*
X95217072Y-68184761D01*
X95165000Y-68446544D01*
X92790386Y-68446544D01*
X92759063Y-68242499D01*
X92667875Y-67991647D01*
X92611368Y-67885932D01*
X92375560Y-67824045D01*
X91619605Y-68580000D01*
X91260395Y-68580000D01*
X90504440Y-67824045D01*
X90268632Y-67885932D01*
X90155734Y-68127790D01*
X90092189Y-68387027D01*
X90080439Y-68653680D01*
X86523109Y-68653680D01*
X86530217Y-68509488D01*
X86488787Y-68229870D01*
X86393603Y-67963708D01*
X86326671Y-67838486D01*
X86082702Y-67766903D01*
X85269605Y-68580000D01*
X84910395Y-68580000D01*
X84097298Y-67766903D01*
X83853329Y-67838486D01*
X83732429Y-68093996D01*
X83663700Y-68368184D01*
X83649783Y-68650512D01*
X78130000Y-68650512D01*
X78130000Y-67587298D01*
X84276903Y-67587298D01*
X85090000Y-68400395D01*
X85845955Y-67644440D01*
X90684045Y-67644440D01*
X91440000Y-68400395D01*
X92195955Y-67644440D01*
X92134068Y-67408632D01*
X91892210Y-67295734D01*
X91632973Y-67232189D01*
X91366320Y-67220439D01*
X91102499Y-67260937D01*
X90851647Y-67352125D01*
X90745932Y-67408632D01*
X90684045Y-67644440D01*
X85845955Y-67644440D01*
X85903097Y-67587298D01*
X85831514Y-67343329D01*
X85576004Y-67222429D01*
X85301816Y-67153700D01*
X85019488Y-67139783D01*
X84739870Y-67181213D01*
X84473708Y-67276397D01*
X84348486Y-67343329D01*
X84276903Y-67587298D01*
X78130000Y-67587298D01*
X78130000Y-65829721D01*
X107935900Y-65829721D01*
X107935900Y-66250279D01*
X108017947Y-66662756D01*
X108178888Y-67051302D01*
X108412537Y-67400983D01*
X108709917Y-67698363D01*
X109059598Y-67932012D01*
X109448144Y-68092953D01*
X109860621Y-68175000D01*
X110281179Y-68175000D01*
X110693656Y-68092953D01*
X111082202Y-67932012D01*
X111431883Y-67698363D01*
X111729263Y-67400983D01*
X111770010Y-67340000D01*
X114031928Y-67340000D01*
X114044188Y-67464482D01*
X114080498Y-67584180D01*
X114139463Y-67694494D01*
X114218815Y-67791185D01*
X114315506Y-67870537D01*
X114425820Y-67929502D01*
X114545518Y-67965812D01*
X114670000Y-67978072D01*
X115284250Y-67975000D01*
X115443000Y-67816250D01*
X115443000Y-66167000D01*
X114193750Y-66167000D01*
X114035000Y-66325750D01*
X114031928Y-67340000D01*
X111770010Y-67340000D01*
X111962912Y-67051302D01*
X112123853Y-66662756D01*
X112205900Y-66250279D01*
X112205900Y-65829721D01*
X112123853Y-65417244D01*
X111962912Y-65028698D01*
X111770011Y-64740000D01*
X114031928Y-64740000D01*
X114035000Y-65754250D01*
X114193750Y-65913000D01*
X115443000Y-65913000D01*
X115443000Y-64263750D01*
X115697000Y-64263750D01*
X115697000Y-65913000D01*
X115717000Y-65913000D01*
X115717000Y-66167000D01*
X115697000Y-66167000D01*
X115697000Y-67816250D01*
X115855750Y-67975000D01*
X116470000Y-67978072D01*
X116594482Y-67965812D01*
X116714180Y-67929502D01*
X116824494Y-67870537D01*
X116921185Y-67791185D01*
X117000537Y-67694494D01*
X117059502Y-67584180D01*
X117064495Y-67567720D01*
X117253074Y-67722481D01*
X117519740Y-67865017D01*
X117809088Y-67952790D01*
X118110000Y-67982427D01*
X118410913Y-67952790D01*
X118700261Y-67865017D01*
X118966927Y-67722481D01*
X119200661Y-67530661D01*
X119380000Y-67312135D01*
X119559339Y-67530661D01*
X119793074Y-67722481D01*
X120059740Y-67865017D01*
X120349088Y-67952790D01*
X120650000Y-67982427D01*
X120950913Y-67952790D01*
X121240261Y-67865017D01*
X121506927Y-67722481D01*
X121740661Y-67530661D01*
X121920000Y-67312135D01*
X122099339Y-67530661D01*
X122333074Y-67722481D01*
X122599740Y-67865017D01*
X122889088Y-67952790D01*
X123190000Y-67982427D01*
X123490913Y-67952790D01*
X123780261Y-67865017D01*
X124046927Y-67722481D01*
X124280661Y-67530661D01*
X124464781Y-67306309D01*
X124524252Y-67398396D01*
X124734394Y-67615210D01*
X124982796Y-67786862D01*
X125259913Y-67906755D01*
X125365260Y-67931036D01*
X125603000Y-67810378D01*
X125603000Y-66167000D01*
X125583000Y-66167000D01*
X125583000Y-65913000D01*
X125603000Y-65913000D01*
X125603000Y-64269622D01*
X125365260Y-64148964D01*
X125259913Y-64173245D01*
X124982796Y-64293138D01*
X124734394Y-64464790D01*
X124524252Y-64681604D01*
X124464781Y-64773691D01*
X124280661Y-64549339D01*
X124046926Y-64357519D01*
X123780260Y-64214983D01*
X123490912Y-64127210D01*
X123190000Y-64097573D01*
X122889087Y-64127210D01*
X122599739Y-64214983D01*
X122333073Y-64357519D01*
X122099339Y-64549339D01*
X121920000Y-64767865D01*
X121740661Y-64549339D01*
X121506926Y-64357519D01*
X121240260Y-64214983D01*
X120950912Y-64127210D01*
X120650000Y-64097573D01*
X120349087Y-64127210D01*
X120059739Y-64214983D01*
X119793073Y-64357519D01*
X119559339Y-64549339D01*
X119380000Y-64767865D01*
X119200661Y-64549339D01*
X118966926Y-64357519D01*
X118700260Y-64214983D01*
X118410912Y-64127210D01*
X118110000Y-64097573D01*
X117809087Y-64127210D01*
X117519739Y-64214983D01*
X117253073Y-64357519D01*
X117064495Y-64512280D01*
X117059502Y-64495820D01*
X117000537Y-64385506D01*
X116921185Y-64288815D01*
X116824494Y-64209463D01*
X116714180Y-64150498D01*
X116594482Y-64114188D01*
X116470000Y-64101928D01*
X115855750Y-64105000D01*
X115697000Y-64263750D01*
X115443000Y-64263750D01*
X115284250Y-64105000D01*
X114670000Y-64101928D01*
X114545518Y-64114188D01*
X114425820Y-64150498D01*
X114315506Y-64209463D01*
X114218815Y-64288815D01*
X114139463Y-64385506D01*
X114080498Y-64495820D01*
X114044188Y-64615518D01*
X114031928Y-64740000D01*
X111770011Y-64740000D01*
X111729263Y-64679017D01*
X111431883Y-64381637D01*
X111082202Y-64147988D01*
X110693656Y-63987047D01*
X110281179Y-63905000D01*
X109860621Y-63905000D01*
X109448144Y-63987047D01*
X109059598Y-64147988D01*
X108709917Y-64381637D01*
X108412537Y-64679017D01*
X108178888Y-65028698D01*
X108017947Y-65417244D01*
X107935900Y-65829721D01*
X78130000Y-65829721D01*
X78130000Y-58199872D01*
X79045000Y-58199872D01*
X79045000Y-58640128D01*
X79130890Y-59071925D01*
X79299369Y-59478669D01*
X79543962Y-59844729D01*
X79855271Y-60156038D01*
X80221331Y-60400631D01*
X80628075Y-60569110D01*
X81059872Y-60655000D01*
X81500128Y-60655000D01*
X81931925Y-60569110D01*
X82338669Y-60400631D01*
X82704729Y-60156038D01*
X83016038Y-59844729D01*
X83260631Y-59478669D01*
X83429110Y-59071925D01*
X83515000Y-58640128D01*
X83515000Y-58199872D01*
X181915000Y-58199872D01*
X181915000Y-58640128D01*
X182000890Y-59071925D01*
X182169369Y-59478669D01*
X182413962Y-59844729D01*
X182725271Y-60156038D01*
X183091331Y-60400631D01*
X183498075Y-60569110D01*
X183929872Y-60655000D01*
X184370128Y-60655000D01*
X184801925Y-60569110D01*
X185208669Y-60400631D01*
X185574729Y-60156038D01*
X185886038Y-59844729D01*
X186130631Y-59478669D01*
X186299110Y-59071925D01*
X186385000Y-58640128D01*
X186385000Y-58199872D01*
X186299110Y-57768075D01*
X186130631Y-57361331D01*
X185886038Y-56995271D01*
X185574729Y-56683962D01*
X185208669Y-56439369D01*
X184801925Y-56270890D01*
X184370128Y-56185000D01*
X183929872Y-56185000D01*
X183498075Y-56270890D01*
X183091331Y-56439369D01*
X182725271Y-56683962D01*
X182413962Y-56995271D01*
X182169369Y-57361331D01*
X182000890Y-57768075D01*
X181915000Y-58199872D01*
X83515000Y-58199872D01*
X83429110Y-57768075D01*
X83260631Y-57361331D01*
X83016038Y-56995271D01*
X82704729Y-56683962D01*
X82338669Y-56439369D01*
X81931925Y-56270890D01*
X81500128Y-56185000D01*
X81059872Y-56185000D01*
X80628075Y-56270890D01*
X80221331Y-56439369D01*
X79855271Y-56683962D01*
X79543962Y-56995271D01*
X79299369Y-57361331D01*
X79130890Y-57768075D01*
X79045000Y-58199872D01*
X78130000Y-58199872D01*
X78130000Y-55270000D01*
X187300000Y-55270000D01*
X187300001Y-57117581D01*
%TA.AperFunction,Conductor*%
D21*
G36*
X187300001Y-57117581D02*
G01*
X187300000Y-105377581D01*
X187300000Y-105377582D01*
X187300001Y-107290000D01*
X78130000Y-107290000D01*
X78130000Y-103919872D01*
X79045000Y-103919872D01*
X79045000Y-104360128D01*
X79130890Y-104791925D01*
X79299369Y-105198669D01*
X79543962Y-105564729D01*
X79855271Y-105876038D01*
X80221331Y-106120631D01*
X80628075Y-106289110D01*
X81059872Y-106375000D01*
X81500128Y-106375000D01*
X81931925Y-106289110D01*
X82338669Y-106120631D01*
X82704729Y-105876038D01*
X83016038Y-105564729D01*
X83260631Y-105198669D01*
X83429110Y-104791925D01*
X83515000Y-104360128D01*
X83515000Y-103919872D01*
X181915000Y-103919872D01*
X181915000Y-104360128D01*
X182000890Y-104791925D01*
X182169369Y-105198669D01*
X182413962Y-105564729D01*
X182725271Y-105876038D01*
X183091331Y-106120631D01*
X183498075Y-106289110D01*
X183929872Y-106375000D01*
X184370128Y-106375000D01*
X184801925Y-106289110D01*
X185208669Y-106120631D01*
X185574729Y-105876038D01*
X185886038Y-105564729D01*
X186130631Y-105198669D01*
X186299110Y-104791925D01*
X186385000Y-104360128D01*
X186385000Y-103919872D01*
X186299110Y-103488075D01*
X186130631Y-103081331D01*
X185886038Y-102715271D01*
X185574729Y-102403962D01*
X185208669Y-102159369D01*
X184801925Y-101990890D01*
X184370128Y-101905000D01*
X183929872Y-101905000D01*
X183498075Y-101990890D01*
X183091331Y-102159369D01*
X182725271Y-102403962D01*
X182413962Y-102715271D01*
X182169369Y-103081331D01*
X182000890Y-103488075D01*
X181915000Y-103919872D01*
X83515000Y-103919872D01*
X83429110Y-103488075D01*
X83260631Y-103081331D01*
X83016038Y-102715271D01*
X82704729Y-102403962D01*
X82338669Y-102159369D01*
X81931925Y-101990890D01*
X81500128Y-101905000D01*
X81059872Y-101905000D01*
X80628075Y-101990890D01*
X80221331Y-102159369D01*
X79855271Y-102403962D01*
X79543962Y-102715271D01*
X79299369Y-103081331D01*
X79130890Y-103488075D01*
X79045000Y-103919872D01*
X78130000Y-103919872D01*
X78130000Y-96830421D01*
X107935900Y-96830421D01*
X107935900Y-97250979D01*
X108017947Y-97663456D01*
X108178888Y-98052002D01*
X108412537Y-98401683D01*
X108709917Y-98699063D01*
X109059598Y-98932712D01*
X109448144Y-99093653D01*
X109860621Y-99175700D01*
X110281179Y-99175700D01*
X110693656Y-99093653D01*
X111082202Y-98932712D01*
X111431883Y-98699063D01*
X111729263Y-98401683D01*
X111962912Y-98052002D01*
X112123853Y-97663456D01*
X112128754Y-97638816D01*
X159755000Y-97638816D01*
X159755000Y-97941184D01*
X159813989Y-98237743D01*
X159929701Y-98517095D01*
X160097688Y-98768505D01*
X160311495Y-98982312D01*
X160562905Y-99150299D01*
X160842257Y-99266011D01*
X161138816Y-99325000D01*
X161441184Y-99325000D01*
X161737743Y-99266011D01*
X162017095Y-99150299D01*
X162268505Y-98982312D01*
X162482312Y-98768505D01*
X162560000Y-98652237D01*
X162637688Y-98768505D01*
X162851495Y-98982312D01*
X163102905Y-99150299D01*
X163382257Y-99266011D01*
X163678816Y-99325000D01*
X163981184Y-99325000D01*
X164277743Y-99266011D01*
X164557095Y-99150299D01*
X164808505Y-98982312D01*
X165022312Y-98768505D01*
X165100000Y-98652237D01*
X165177688Y-98768505D01*
X165391495Y-98982312D01*
X165642905Y-99150299D01*
X165922257Y-99266011D01*
X166218816Y-99325000D01*
X166521184Y-99325000D01*
X166817743Y-99266011D01*
X167097095Y-99150299D01*
X167348505Y-98982312D01*
X167562312Y-98768505D01*
X167640000Y-98652237D01*
X167717688Y-98768505D01*
X167931495Y-98982312D01*
X168182905Y-99150299D01*
X168462257Y-99266011D01*
X168758816Y-99325000D01*
X169061184Y-99325000D01*
X169357743Y-99266011D01*
X169637095Y-99150299D01*
X169888505Y-98982312D01*
X170102312Y-98768505D01*
X170180000Y-98652237D01*
X170257688Y-98768505D01*
X170471495Y-98982312D01*
X170722905Y-99150299D01*
X171002257Y-99266011D01*
X171298816Y-99325000D01*
X171601184Y-99325000D01*
X171897743Y-99266011D01*
X172177095Y-99150299D01*
X172428505Y-98982312D01*
X172642312Y-98768505D01*
X172720000Y-98652237D01*
X172797688Y-98768505D01*
X173011495Y-98982312D01*
X173262905Y-99150299D01*
X173542257Y-99266011D01*
X173838816Y-99325000D01*
X174141184Y-99325000D01*
X174437743Y-99266011D01*
X174717095Y-99150299D01*
X174968505Y-98982312D01*
X175096737Y-98854080D01*
X175645525Y-98854080D01*
X175729208Y-99108261D01*
X176001775Y-99239158D01*
X176294642Y-99314365D01*
X176596553Y-99330991D01*
X176895907Y-99288397D01*
X177181199Y-99188222D01*
X177330792Y-99108261D01*
X177414475Y-98854080D01*
X176530000Y-97969605D01*
X175645525Y-98854080D01*
X175096737Y-98854080D01*
X175182312Y-98768505D01*
X175284951Y-98614895D01*
X175465920Y-98674475D01*
X176350395Y-97790000D01*
X176709605Y-97790000D01*
X177594080Y-98674475D01*
X177775049Y-98614895D01*
X177877688Y-98768505D01*
X178091495Y-98982312D01*
X178342905Y-99150299D01*
X178622257Y-99266011D01*
X178918816Y-99325000D01*
X179221184Y-99325000D01*
X179517743Y-99266011D01*
X179797095Y-99150299D01*
X180048505Y-98982312D01*
X180262312Y-98768505D01*
X180430299Y-98517095D01*
X180546011Y-98237743D01*
X180605000Y-97941184D01*
X180605000Y-97638816D01*
X180546011Y-97342257D01*
X180430299Y-97062905D01*
X180274958Y-96830421D01*
X182934480Y-96830421D01*
X182934480Y-97250979D01*
X183016527Y-97663456D01*
X183177468Y-98052002D01*
X183411117Y-98401683D01*
X183708497Y-98699063D01*
X184058178Y-98932712D01*
X184446724Y-99093653D01*
X184859201Y-99175700D01*
X185279759Y-99175700D01*
X185692236Y-99093653D01*
X186080782Y-98932712D01*
X186430463Y-98699063D01*
X186727843Y-98401683D01*
X186961492Y-98052002D01*
X187122433Y-97663456D01*
X187204480Y-97250979D01*
X187204480Y-96830421D01*
X187122433Y-96417944D01*
X186961492Y-96029398D01*
X186727843Y-95679717D01*
X186430463Y-95382337D01*
X186080782Y-95148688D01*
X185692236Y-94987747D01*
X185279759Y-94905700D01*
X184859201Y-94905700D01*
X184446724Y-94987747D01*
X184058178Y-95148688D01*
X183708497Y-95382337D01*
X183411117Y-95679717D01*
X183177468Y-96029398D01*
X183016527Y-96417944D01*
X182934480Y-96830421D01*
X180274958Y-96830421D01*
X180262312Y-96811495D01*
X180048505Y-96597688D01*
X179797095Y-96429701D01*
X179517743Y-96313989D01*
X179221184Y-96255000D01*
X178918816Y-96255000D01*
X178622257Y-96313989D01*
X178342905Y-96429701D01*
X178091495Y-96597688D01*
X177877688Y-96811495D01*
X177775049Y-96965105D01*
X177594080Y-96905525D01*
X176709605Y-97790000D01*
X176350395Y-97790000D01*
X175465920Y-96905525D01*
X175284951Y-96965105D01*
X175182312Y-96811495D01*
X175096737Y-96725920D01*
X175645525Y-96725920D01*
X176530000Y-97610395D01*
X177414475Y-96725920D01*
X177330792Y-96471739D01*
X177058225Y-96340842D01*
X176765358Y-96265635D01*
X176463447Y-96249009D01*
X176164093Y-96291603D01*
X175878801Y-96391778D01*
X175729208Y-96471739D01*
X175645525Y-96725920D01*
X175096737Y-96725920D01*
X174968505Y-96597688D01*
X174717095Y-96429701D01*
X174437743Y-96313989D01*
X174141184Y-96255000D01*
X173838816Y-96255000D01*
X173542257Y-96313989D01*
X173262905Y-96429701D01*
X173011495Y-96597688D01*
X172797688Y-96811495D01*
X172720000Y-96927763D01*
X172642312Y-96811495D01*
X172428505Y-96597688D01*
X172177095Y-96429701D01*
X171897743Y-96313989D01*
X171601184Y-96255000D01*
X171298816Y-96255000D01*
X171002257Y-96313989D01*
X170722905Y-96429701D01*
X170471495Y-96597688D01*
X170257688Y-96811495D01*
X170180000Y-96927763D01*
X170102312Y-96811495D01*
X169888505Y-96597688D01*
X169637095Y-96429701D01*
X169357743Y-96313989D01*
X169061184Y-96255000D01*
X168758816Y-96255000D01*
X168462257Y-96313989D01*
X168182905Y-96429701D01*
X167931495Y-96597688D01*
X167717688Y-96811495D01*
X167640000Y-96927763D01*
X167562312Y-96811495D01*
X167348505Y-96597688D01*
X167097095Y-96429701D01*
X166817743Y-96313989D01*
X166521184Y-96255000D01*
X166218816Y-96255000D01*
X165922257Y-96313989D01*
X165642905Y-96429701D01*
X165391495Y-96597688D01*
X165177688Y-96811495D01*
X165100000Y-96927763D01*
X165022312Y-96811495D01*
X164808505Y-96597688D01*
X164557095Y-96429701D01*
X164277743Y-96313989D01*
X163981184Y-96255000D01*
X163678816Y-96255000D01*
X163382257Y-96313989D01*
X163102905Y-96429701D01*
X162851495Y-96597688D01*
X162637688Y-96811495D01*
X162560000Y-96927763D01*
X162482312Y-96811495D01*
X162268505Y-96597688D01*
X162017095Y-96429701D01*
X161737743Y-96313989D01*
X161441184Y-96255000D01*
X161138816Y-96255000D01*
X160842257Y-96313989D01*
X160562905Y-96429701D01*
X160311495Y-96597688D01*
X160097688Y-96811495D01*
X159929701Y-97062905D01*
X159813989Y-97342257D01*
X159755000Y-97638816D01*
X112128754Y-97638816D01*
X112205900Y-97250979D01*
X112205900Y-96830421D01*
X112123853Y-96417944D01*
X111962912Y-96029398D01*
X111729263Y-95679717D01*
X111431883Y-95382337D01*
X111082202Y-95148688D01*
X110693656Y-94987747D01*
X110281179Y-94905700D01*
X109860621Y-94905700D01*
X109448144Y-94987747D01*
X109059598Y-95148688D01*
X108709917Y-95382337D01*
X108412537Y-95679717D01*
X108178888Y-96029398D01*
X108017947Y-96417944D01*
X107935900Y-96830421D01*
X78130000Y-96830421D01*
X78130000Y-78598665D01*
X83655000Y-78598665D01*
X83655000Y-78881335D01*
X83710147Y-79158574D01*
X83818320Y-79419727D01*
X83975363Y-79654759D01*
X84175241Y-79854637D01*
X84255000Y-79907930D01*
X84255001Y-82508972D01*
X84250960Y-82550000D01*
X84267082Y-82713688D01*
X84314828Y-82871086D01*
X84314829Y-82871087D01*
X84392365Y-83016146D01*
X84496710Y-83143291D01*
X84528574Y-83169441D01*
X88381415Y-87022283D01*
X88357439Y-87080166D01*
X88285000Y-87444344D01*
X88285000Y-87815656D01*
X88357439Y-88179834D01*
X88499534Y-88522882D01*
X88609939Y-88688114D01*
X88459549Y-88718029D01*
X88184747Y-88831856D01*
X87937431Y-88997107D01*
X87727107Y-89207431D01*
X87561856Y-89454747D01*
X87448029Y-89729549D01*
X87390000Y-90021278D01*
X87390000Y-90318722D01*
X87448029Y-90610451D01*
X87561856Y-90885253D01*
X87727107Y-91132569D01*
X87937431Y-91342893D01*
X88184747Y-91508144D01*
X88459549Y-91621971D01*
X88751278Y-91680000D01*
X89048722Y-91680000D01*
X89340451Y-91621971D01*
X89615253Y-91508144D01*
X89862569Y-91342893D01*
X90072893Y-91132569D01*
X90238144Y-90885253D01*
X90351971Y-90610451D01*
X90410000Y-90318722D01*
X90410000Y-90021278D01*
X90351971Y-89729549D01*
X90263102Y-89515000D01*
X90355656Y-89515000D01*
X90719834Y-89442561D01*
X91062882Y-89300466D01*
X91371618Y-89094175D01*
X91634175Y-88831618D01*
X91840466Y-88522882D01*
X91864441Y-88465000D01*
X91958547Y-88465000D01*
X91933262Y-88490285D01*
X91644893Y-88921859D01*
X91446261Y-89401399D01*
X91345000Y-89910475D01*
X91345000Y-90429525D01*
X91446261Y-90938601D01*
X91644893Y-91418141D01*
X91933262Y-91849715D01*
X92300285Y-92216738D01*
X92731859Y-92505107D01*
X93211399Y-92703739D01*
X93720475Y-92805000D01*
X94239525Y-92805000D01*
X94748601Y-92703739D01*
X95074698Y-92568665D01*
X119215000Y-92568665D01*
X119215000Y-92851335D01*
X119270147Y-93128574D01*
X119378320Y-93389727D01*
X119535363Y-93624759D01*
X119735241Y-93824637D01*
X119970273Y-93981680D01*
X120231426Y-94089853D01*
X120508665Y-94145000D01*
X120791335Y-94145000D01*
X121068574Y-94089853D01*
X121329727Y-93981680D01*
X121564759Y-93824637D01*
X121764637Y-93624759D01*
X121921680Y-93389727D01*
X122029853Y-93128574D01*
X122043684Y-93059040D01*
X124338091Y-93059040D01*
X124432930Y-93323881D01*
X124577615Y-93565131D01*
X124766586Y-93773519D01*
X124992580Y-93941037D01*
X125246913Y-94061246D01*
X125380961Y-94101904D01*
X125603000Y-93979915D01*
X125603000Y-92837000D01*
X125857000Y-92837000D01*
X125857000Y-93979915D01*
X126079039Y-94101904D01*
X126213087Y-94061246D01*
X126467420Y-93941037D01*
X126693414Y-93773519D01*
X126882385Y-93565131D01*
X127027070Y-93323881D01*
X127121909Y-93059040D01*
X127000624Y-92837000D01*
X125857000Y-92837000D01*
X125603000Y-92837000D01*
X124459376Y-92837000D01*
X124338091Y-93059040D01*
X122043684Y-93059040D01*
X122085000Y-92851335D01*
X122085000Y-92568665D01*
X122043685Y-92360960D01*
X124338091Y-92360960D01*
X124459376Y-92583000D01*
X125603000Y-92583000D01*
X125603000Y-91440085D01*
X125857000Y-91440085D01*
X125857000Y-92583000D01*
X127000624Y-92583000D01*
X127121909Y-92360960D01*
X127027070Y-92096119D01*
X126882385Y-91854869D01*
X126693414Y-91646481D01*
X126467420Y-91478963D01*
X126213087Y-91358754D01*
X126079039Y-91318096D01*
X125857000Y-91440085D01*
X125603000Y-91440085D01*
X125380961Y-91318096D01*
X125246913Y-91358754D01*
X124992580Y-91478963D01*
X124766586Y-91646481D01*
X124577615Y-91854869D01*
X124432930Y-92096119D01*
X124338091Y-92360960D01*
X122043685Y-92360960D01*
X122029853Y-92291426D01*
X121921680Y-92030273D01*
X121764637Y-91795241D01*
X121564759Y-91595363D01*
X121329727Y-91438320D01*
X121068574Y-91330147D01*
X120791335Y-91275000D01*
X120508665Y-91275000D01*
X120231426Y-91330147D01*
X119970273Y-91438320D01*
X119735241Y-91595363D01*
X119535363Y-91795241D01*
X119378320Y-92030273D01*
X119270147Y-92291426D01*
X119215000Y-92568665D01*
X95074698Y-92568665D01*
X95228141Y-92505107D01*
X95659715Y-92216738D01*
X96026738Y-91849715D01*
X96315107Y-91418141D01*
X96513739Y-90938601D01*
X96615000Y-90429525D01*
X96615000Y-90021278D01*
X97550000Y-90021278D01*
X97550000Y-90318722D01*
X97608029Y-90610451D01*
X97721856Y-90885253D01*
X97887107Y-91132569D01*
X98097431Y-91342893D01*
X98344747Y-91508144D01*
X98619549Y-91621971D01*
X98911278Y-91680000D01*
X99208722Y-91680000D01*
X99500451Y-91621971D01*
X99775253Y-91508144D01*
X100022569Y-91342893D01*
X100232893Y-91132569D01*
X100398144Y-90885253D01*
X100511971Y-90610451D01*
X100570000Y-90318722D01*
X100570000Y-90021278D01*
X100511971Y-89729549D01*
X100398144Y-89454747D01*
X100232893Y-89207431D01*
X100022569Y-88997107D01*
X99775253Y-88831856D01*
X99500451Y-88718029D01*
X99208722Y-88660000D01*
X98911278Y-88660000D01*
X98619549Y-88718029D01*
X98344747Y-88831856D01*
X98097431Y-88997107D01*
X97887107Y-89207431D01*
X97721856Y-89454747D01*
X97608029Y-89729549D01*
X97550000Y-90021278D01*
X96615000Y-90021278D01*
X96615000Y-89910475D01*
X96513739Y-89401399D01*
X96315107Y-88921859D01*
X96026738Y-88490285D01*
X96001453Y-88465000D01*
X166328982Y-88465000D01*
X166370000Y-88469040D01*
X166411018Y-88465000D01*
X166411019Y-88465000D01*
X166533689Y-88452918D01*
X166691087Y-88405172D01*
X166836146Y-88327636D01*
X166963291Y-88223291D01*
X166989446Y-88191421D01*
X177091433Y-78089436D01*
X177123291Y-78063291D01*
X177227636Y-77936146D01*
X177305172Y-77791087D01*
X177352918Y-77633689D01*
X177365000Y-77511019D01*
X177365000Y-77511018D01*
X177369040Y-77470000D01*
X177365000Y-77428982D01*
X177365000Y-76218199D01*
X177508505Y-76122312D01*
X177722312Y-75908505D01*
X177800000Y-75792237D01*
X177877688Y-75908505D01*
X178091495Y-76122312D01*
X178342905Y-76290299D01*
X178622257Y-76406011D01*
X178918816Y-76465000D01*
X179221184Y-76465000D01*
X179517743Y-76406011D01*
X179797095Y-76290299D01*
X180048505Y-76122312D01*
X180262312Y-75908505D01*
X180430299Y-75657095D01*
X180546011Y-75377743D01*
X180605000Y-75081184D01*
X180605000Y-74778816D01*
X180546011Y-74482257D01*
X180430299Y-74202905D01*
X180262312Y-73951495D01*
X180048505Y-73737688D01*
X179797095Y-73569701D01*
X179517743Y-73453989D01*
X179221184Y-73395000D01*
X178918816Y-73395000D01*
X178622257Y-73453989D01*
X178342905Y-73569701D01*
X178091495Y-73737688D01*
X177877688Y-73951495D01*
X177800000Y-74067763D01*
X177722312Y-73951495D01*
X177508505Y-73737688D01*
X177257095Y-73569701D01*
X176977743Y-73453989D01*
X176681184Y-73395000D01*
X176378816Y-73395000D01*
X176082257Y-73453989D01*
X175802905Y-73569701D01*
X175551495Y-73737688D01*
X175337688Y-73951495D01*
X175260000Y-74067763D01*
X175182312Y-73951495D01*
X174968505Y-73737688D01*
X174717095Y-73569701D01*
X174437743Y-73453989D01*
X174141184Y-73395000D01*
X173838816Y-73395000D01*
X173542257Y-73453989D01*
X173262905Y-73569701D01*
X173011495Y-73737688D01*
X172797688Y-73951495D01*
X172720000Y-74067763D01*
X172642312Y-73951495D01*
X172428505Y-73737688D01*
X172177095Y-73569701D01*
X171897743Y-73453989D01*
X171601184Y-73395000D01*
X171298816Y-73395000D01*
X171002257Y-73453989D01*
X170722905Y-73569701D01*
X170471495Y-73737688D01*
X170257688Y-73951495D01*
X170180000Y-74067763D01*
X170102312Y-73951495D01*
X169888505Y-73737688D01*
X169637095Y-73569701D01*
X169357743Y-73453989D01*
X169061184Y-73395000D01*
X168758816Y-73395000D01*
X168462257Y-73453989D01*
X168182905Y-73569701D01*
X167931495Y-73737688D01*
X167717688Y-73951495D01*
X167640000Y-74067763D01*
X167562312Y-73951495D01*
X167348505Y-73737688D01*
X167097095Y-73569701D01*
X166817743Y-73453989D01*
X166521184Y-73395000D01*
X166218816Y-73395000D01*
X165922257Y-73453989D01*
X165642905Y-73569701D01*
X165391495Y-73737688D01*
X165177688Y-73951495D01*
X165100000Y-74067763D01*
X165022312Y-73951495D01*
X164808505Y-73737688D01*
X164557095Y-73569701D01*
X164277743Y-73453989D01*
X163981184Y-73395000D01*
X163678816Y-73395000D01*
X163382257Y-73453989D01*
X163102905Y-73569701D01*
X162851495Y-73737688D01*
X162637688Y-73951495D01*
X162560000Y-74067763D01*
X162482312Y-73951495D01*
X162268505Y-73737688D01*
X162017095Y-73569701D01*
X161737743Y-73453989D01*
X161441184Y-73395000D01*
X161138816Y-73395000D01*
X160842257Y-73453989D01*
X160562905Y-73569701D01*
X160311495Y-73737688D01*
X160097688Y-73951495D01*
X159929701Y-74202905D01*
X159813989Y-74482257D01*
X159755000Y-74778816D01*
X159755000Y-75081184D01*
X159813989Y-75377743D01*
X159929701Y-75657095D01*
X160097688Y-75908505D01*
X160311495Y-76122312D01*
X160562905Y-76290299D01*
X160842257Y-76406011D01*
X161138816Y-76465000D01*
X161441184Y-76465000D01*
X161737743Y-76406011D01*
X162017095Y-76290299D01*
X162268505Y-76122312D01*
X162482312Y-75908505D01*
X162560000Y-75792237D01*
X162637688Y-75908505D01*
X162851495Y-76122312D01*
X163102905Y-76290299D01*
X163382257Y-76406011D01*
X163678816Y-76465000D01*
X163981184Y-76465000D01*
X164277743Y-76406011D01*
X164557095Y-76290299D01*
X164808505Y-76122312D01*
X165022312Y-75908505D01*
X165100000Y-75792237D01*
X165177688Y-75908505D01*
X165391495Y-76122312D01*
X165642905Y-76290299D01*
X165922257Y-76406011D01*
X166218816Y-76465000D01*
X166521184Y-76465000D01*
X166817743Y-76406011D01*
X167097095Y-76290299D01*
X167348505Y-76122312D01*
X167562312Y-75908505D01*
X167640000Y-75792237D01*
X167717688Y-75908505D01*
X167931495Y-76122312D01*
X168182905Y-76290299D01*
X168462257Y-76406011D01*
X168758816Y-76465000D01*
X169061184Y-76465000D01*
X169357743Y-76406011D01*
X169637095Y-76290299D01*
X169888505Y-76122312D01*
X170102312Y-75908505D01*
X170180000Y-75792237D01*
X170257688Y-75908505D01*
X170471495Y-76122312D01*
X170722905Y-76290299D01*
X171002257Y-76406011D01*
X171298816Y-76465000D01*
X171601184Y-76465000D01*
X171897743Y-76406011D01*
X172177095Y-76290299D01*
X172428505Y-76122312D01*
X172642312Y-75908505D01*
X172720000Y-75792237D01*
X172797688Y-75908505D01*
X173011495Y-76122312D01*
X173262905Y-76290299D01*
X173542257Y-76406011D01*
X173838816Y-76465000D01*
X174141184Y-76465000D01*
X174437743Y-76406011D01*
X174717095Y-76290299D01*
X174968505Y-76122312D01*
X175182312Y-75908505D01*
X175260000Y-75792237D01*
X175337688Y-75908505D01*
X175551495Y-76122312D01*
X175695000Y-76218199D01*
X175695000Y-77124131D01*
X166024133Y-86795000D01*
X97329509Y-86795000D01*
X97412882Y-86760466D01*
X97721618Y-86554175D01*
X97984175Y-86291618D01*
X98190466Y-85982882D01*
X98332561Y-85639834D01*
X98405000Y-85275656D01*
X98405000Y-84904344D01*
X98332561Y-84540166D01*
X98190466Y-84197118D01*
X97984175Y-83888382D01*
X97721618Y-83625825D01*
X97412882Y-83419534D01*
X97069834Y-83277439D01*
X96705656Y-83205000D01*
X96334344Y-83205000D01*
X95970166Y-83277439D01*
X95627118Y-83419534D01*
X95318382Y-83625825D01*
X95055825Y-83888382D01*
X94849534Y-84197118D01*
X94707439Y-84540166D01*
X94635000Y-84904344D01*
X94635000Y-85275656D01*
X94707439Y-85639834D01*
X94849534Y-85982882D01*
X95055825Y-86291618D01*
X95318382Y-86554175D01*
X95627118Y-86760466D01*
X95710491Y-86795000D01*
X91864441Y-86795000D01*
X91840466Y-86737118D01*
X91634175Y-86428382D01*
X91371618Y-86165825D01*
X91062882Y-85959534D01*
X90719834Y-85817439D01*
X90355656Y-85745000D01*
X89984344Y-85745000D01*
X89620166Y-85817439D01*
X89562283Y-85841415D01*
X86129533Y-82408665D01*
X119215000Y-82408665D01*
X119215000Y-82691335D01*
X119270147Y-82968574D01*
X119378320Y-83229727D01*
X119535363Y-83464759D01*
X119735241Y-83664637D01*
X119970273Y-83821680D01*
X120231426Y-83929853D01*
X120508665Y-83985000D01*
X120791335Y-83985000D01*
X121068574Y-83929853D01*
X121329727Y-83821680D01*
X121564759Y-83664637D01*
X121764637Y-83464759D01*
X121921680Y-83229727D01*
X122029853Y-82968574D01*
X122085000Y-82691335D01*
X122085000Y-82408665D01*
X124295000Y-82408665D01*
X124295000Y-82691335D01*
X124350147Y-82968574D01*
X124458320Y-83229727D01*
X124615363Y-83464759D01*
X124815241Y-83664637D01*
X125050273Y-83821680D01*
X125311426Y-83929853D01*
X125588665Y-83985000D01*
X125871335Y-83985000D01*
X126148574Y-83929853D01*
X126409727Y-83821680D01*
X126644759Y-83664637D01*
X126844637Y-83464759D01*
X127001680Y-83229727D01*
X127109853Y-82968574D01*
X127165000Y-82691335D01*
X127165000Y-82408665D01*
X127109853Y-82131426D01*
X127001680Y-81870273D01*
X126844637Y-81635241D01*
X126644759Y-81435363D01*
X126409727Y-81278320D01*
X126148574Y-81170147D01*
X125871335Y-81115000D01*
X125588665Y-81115000D01*
X125311426Y-81170147D01*
X125050273Y-81278320D01*
X124815241Y-81435363D01*
X124615363Y-81635241D01*
X124458320Y-81870273D01*
X124350147Y-82131426D01*
X124295000Y-82408665D01*
X122085000Y-82408665D01*
X122029853Y-82131426D01*
X121921680Y-81870273D01*
X121764637Y-81635241D01*
X121564759Y-81435363D01*
X121329727Y-81278320D01*
X121068574Y-81170147D01*
X120791335Y-81115000D01*
X120508665Y-81115000D01*
X120231426Y-81170147D01*
X119970273Y-81278320D01*
X119735241Y-81435363D01*
X119535363Y-81635241D01*
X119378320Y-81870273D01*
X119270147Y-82131426D01*
X119215000Y-82408665D01*
X86129533Y-82408665D01*
X85925000Y-82204133D01*
X85925000Y-79907930D01*
X86004759Y-79854637D01*
X86204637Y-79654759D01*
X86361680Y-79419727D01*
X86469853Y-79158574D01*
X86525000Y-78881335D01*
X86525000Y-78598665D01*
X86469853Y-78321426D01*
X86361680Y-78060273D01*
X86204637Y-77825241D01*
X86004759Y-77625363D01*
X85769727Y-77468320D01*
X85508574Y-77360147D01*
X85231335Y-77305000D01*
X84948665Y-77305000D01*
X84671426Y-77360147D01*
X84410273Y-77468320D01*
X84175241Y-77625363D01*
X83975363Y-77825241D01*
X83818320Y-78060273D01*
X83710147Y-78321426D01*
X83655000Y-78598665D01*
X78130000Y-78598665D01*
X78130000Y-70986544D01*
X92625000Y-70986544D01*
X92625000Y-71253456D01*
X92677072Y-71515239D01*
X92779215Y-71761833D01*
X92927503Y-71983762D01*
X93116238Y-72172497D01*
X93338167Y-72320785D01*
X93584761Y-72422928D01*
X93846544Y-72475000D01*
X94113456Y-72475000D01*
X94375239Y-72422928D01*
X94621833Y-72320785D01*
X94843762Y-72172497D01*
X95032497Y-71983762D01*
X95051715Y-71955000D01*
X149818982Y-71955000D01*
X149860000Y-71959040D01*
X149901018Y-71955000D01*
X149901019Y-71955000D01*
X150023689Y-71942918D01*
X150181087Y-71895172D01*
X150326146Y-71817636D01*
X150453291Y-71713291D01*
X150479446Y-71681421D01*
X151691428Y-70469440D01*
X151723291Y-70443291D01*
X151827636Y-70316146D01*
X151905172Y-70171087D01*
X151952918Y-70013689D01*
X151965000Y-69891019D01*
X151965000Y-69891017D01*
X151969040Y-69850001D01*
X151965000Y-69808985D01*
X151965000Y-67734201D01*
X151986927Y-67722481D01*
X152220661Y-67530661D01*
X152404781Y-67306309D01*
X152464252Y-67398396D01*
X152674394Y-67615210D01*
X152922796Y-67786862D01*
X153199913Y-67906755D01*
X153305260Y-67931036D01*
X153543000Y-67810378D01*
X153543000Y-66167000D01*
X153797000Y-66167000D01*
X153797000Y-67810378D01*
X154034740Y-67931036D01*
X154140087Y-67906755D01*
X154417204Y-67786862D01*
X154665606Y-67615210D01*
X154875748Y-67398396D01*
X155039554Y-67144751D01*
X155150729Y-66864023D01*
X155205000Y-66567000D01*
X155205000Y-66167000D01*
X153797000Y-66167000D01*
X153543000Y-66167000D01*
X153523000Y-66167000D01*
X153523000Y-65913000D01*
X153543000Y-65913000D01*
X153543000Y-64269622D01*
X153797000Y-64269622D01*
X153797000Y-65913000D01*
X155205000Y-65913000D01*
X155205000Y-65829721D01*
X182935000Y-65829721D01*
X182935000Y-66250279D01*
X183017047Y-66662756D01*
X183177988Y-67051302D01*
X183411637Y-67400983D01*
X183709017Y-67698363D01*
X184058698Y-67932012D01*
X184447244Y-68092953D01*
X184859721Y-68175000D01*
X185280279Y-68175000D01*
X185692756Y-68092953D01*
X186081302Y-67932012D01*
X186430983Y-67698363D01*
X186728363Y-67400983D01*
X186962012Y-67051302D01*
X187122953Y-66662756D01*
X187205000Y-66250279D01*
X187205000Y-65829721D01*
X187122953Y-65417244D01*
X186962012Y-65028698D01*
X186728363Y-64679017D01*
X186430983Y-64381637D01*
X186081302Y-64147988D01*
X185692756Y-63987047D01*
X185280279Y-63905000D01*
X184859721Y-63905000D01*
X184447244Y-63987047D01*
X184058698Y-64147988D01*
X183709017Y-64381637D01*
X183411637Y-64679017D01*
X183177988Y-65028698D01*
X183017047Y-65417244D01*
X182935000Y-65829721D01*
X155205000Y-65829721D01*
X155205000Y-65513000D01*
X155150729Y-65215977D01*
X155039554Y-64935249D01*
X154875748Y-64681604D01*
X154665606Y-64464790D01*
X154417204Y-64293138D01*
X154140087Y-64173245D01*
X154034740Y-64148964D01*
X153797000Y-64269622D01*
X153543000Y-64269622D01*
X153305260Y-64148964D01*
X153199913Y-64173245D01*
X152922796Y-64293138D01*
X152674394Y-64464790D01*
X152464252Y-64681604D01*
X152404781Y-64773691D01*
X152220661Y-64549339D01*
X151986926Y-64357519D01*
X151720260Y-64214983D01*
X151430912Y-64127210D01*
X151130000Y-64097573D01*
X150829087Y-64127210D01*
X150539739Y-64214983D01*
X150273073Y-64357519D01*
X150039339Y-64549339D01*
X149860000Y-64767865D01*
X149680661Y-64549339D01*
X149446926Y-64357519D01*
X149180260Y-64214983D01*
X148890912Y-64127210D01*
X148590000Y-64097573D01*
X148289087Y-64127210D01*
X147999739Y-64214983D01*
X147733073Y-64357519D01*
X147499339Y-64549339D01*
X147320000Y-64767865D01*
X147140661Y-64549339D01*
X146906926Y-64357519D01*
X146640260Y-64214983D01*
X146350912Y-64127210D01*
X146050000Y-64097573D01*
X145749087Y-64127210D01*
X145459739Y-64214983D01*
X145193073Y-64357519D01*
X144959339Y-64549339D01*
X144780000Y-64767865D01*
X144600661Y-64549339D01*
X144366926Y-64357519D01*
X144100260Y-64214983D01*
X143810912Y-64127210D01*
X143510000Y-64097573D01*
X143209087Y-64127210D01*
X142919739Y-64214983D01*
X142653073Y-64357519D01*
X142419339Y-64549339D01*
X142240000Y-64767865D01*
X142060661Y-64549339D01*
X141826926Y-64357519D01*
X141560260Y-64214983D01*
X141270912Y-64127210D01*
X140970000Y-64097573D01*
X140669087Y-64127210D01*
X140379739Y-64214983D01*
X140113073Y-64357519D01*
X139879339Y-64549339D01*
X139700000Y-64767865D01*
X139520661Y-64549339D01*
X139286926Y-64357519D01*
X139020260Y-64214983D01*
X138730912Y-64127210D01*
X138430000Y-64097573D01*
X138129087Y-64127210D01*
X137839739Y-64214983D01*
X137573073Y-64357519D01*
X137339339Y-64549339D01*
X137160000Y-64767865D01*
X136980661Y-64549339D01*
X136746926Y-64357519D01*
X136480260Y-64214983D01*
X136190912Y-64127210D01*
X135890000Y-64097573D01*
X135589087Y-64127210D01*
X135299739Y-64214983D01*
X135033073Y-64357519D01*
X134799339Y-64549339D01*
X134620000Y-64767865D01*
X134440661Y-64549339D01*
X134206926Y-64357519D01*
X133940260Y-64214983D01*
X133650912Y-64127210D01*
X133350000Y-64097573D01*
X133049087Y-64127210D01*
X132759739Y-64214983D01*
X132493073Y-64357519D01*
X132259339Y-64549339D01*
X132080000Y-64767865D01*
X131900661Y-64549339D01*
X131666926Y-64357519D01*
X131400260Y-64214983D01*
X131110912Y-64127210D01*
X130810000Y-64097573D01*
X130509087Y-64127210D01*
X130219739Y-64214983D01*
X129953073Y-64357519D01*
X129719339Y-64549339D01*
X129540000Y-64767865D01*
X129360661Y-64549339D01*
X129126926Y-64357519D01*
X128860260Y-64214983D01*
X128570912Y-64127210D01*
X128270000Y-64097573D01*
X127969087Y-64127210D01*
X127679739Y-64214983D01*
X127413073Y-64357519D01*
X127179339Y-64549339D01*
X126995219Y-64773692D01*
X126935748Y-64681604D01*
X126725606Y-64464790D01*
X126477204Y-64293138D01*
X126200087Y-64173245D01*
X126094740Y-64148964D01*
X125857000Y-64269622D01*
X125857000Y-65913000D01*
X125877000Y-65913000D01*
X125877000Y-66167000D01*
X125857000Y-66167000D01*
X125857000Y-67810378D01*
X126094740Y-67931036D01*
X126200087Y-67906755D01*
X126477204Y-67786862D01*
X126725606Y-67615210D01*
X126935748Y-67398396D01*
X126995219Y-67306309D01*
X127179339Y-67530661D01*
X127413074Y-67722481D01*
X127679740Y-67865017D01*
X127969088Y-67952790D01*
X128270000Y-67982427D01*
X128570913Y-67952790D01*
X128860261Y-67865017D01*
X129126927Y-67722481D01*
X129360661Y-67530661D01*
X129540000Y-67312135D01*
X129719339Y-67530661D01*
X129953074Y-67722481D01*
X130219740Y-67865017D01*
X130509088Y-67952790D01*
X130810000Y-67982427D01*
X131110913Y-67952790D01*
X131400261Y-67865017D01*
X131666927Y-67722481D01*
X131900661Y-67530661D01*
X132080000Y-67312135D01*
X132259339Y-67530661D01*
X132493074Y-67722481D01*
X132759740Y-67865017D01*
X133049088Y-67952790D01*
X133350000Y-67982427D01*
X133650913Y-67952790D01*
X133940261Y-67865017D01*
X134206927Y-67722481D01*
X134440661Y-67530661D01*
X134620000Y-67312135D01*
X134799339Y-67530661D01*
X135033074Y-67722481D01*
X135299740Y-67865017D01*
X135589088Y-67952790D01*
X135890000Y-67982427D01*
X136190913Y-67952790D01*
X136480261Y-67865017D01*
X136746927Y-67722481D01*
X136980661Y-67530661D01*
X137160000Y-67312135D01*
X137339339Y-67530661D01*
X137573074Y-67722481D01*
X137839740Y-67865017D01*
X138129088Y-67952790D01*
X138430000Y-67982427D01*
X138730913Y-67952790D01*
X139020261Y-67865017D01*
X139286927Y-67722481D01*
X139520661Y-67530661D01*
X139700000Y-67312135D01*
X139879339Y-67530661D01*
X140113074Y-67722481D01*
X140379740Y-67865017D01*
X140669088Y-67952790D01*
X140970000Y-67982427D01*
X141270913Y-67952790D01*
X141560261Y-67865017D01*
X141826927Y-67722481D01*
X142060661Y-67530661D01*
X142240000Y-67312135D01*
X142419339Y-67530661D01*
X142653074Y-67722481D01*
X142919740Y-67865017D01*
X143209088Y-67952790D01*
X143510000Y-67982427D01*
X143810913Y-67952790D01*
X144100261Y-67865017D01*
X144366927Y-67722481D01*
X144600661Y-67530661D01*
X144780000Y-67312135D01*
X144959339Y-67530661D01*
X145193074Y-67722481D01*
X145459740Y-67865017D01*
X145749088Y-67952790D01*
X146050000Y-67982427D01*
X146350913Y-67952790D01*
X146640261Y-67865017D01*
X146906927Y-67722481D01*
X147140661Y-67530661D01*
X147320000Y-67312135D01*
X147499339Y-67530661D01*
X147733074Y-67722481D01*
X147999740Y-67865017D01*
X148289088Y-67952790D01*
X148590000Y-67982427D01*
X148890913Y-67952790D01*
X149180261Y-67865017D01*
X149446927Y-67722481D01*
X149680661Y-67530661D01*
X149860000Y-67312135D01*
X150039339Y-67530661D01*
X150273074Y-67722481D01*
X150295001Y-67734201D01*
X150295000Y-69504132D01*
X149514133Y-70285000D01*
X95051715Y-70285000D01*
X95032497Y-70256238D01*
X94843762Y-70067503D01*
X94621833Y-69919215D01*
X94375239Y-69817072D01*
X94113456Y-69765000D01*
X93846544Y-69765000D01*
X93584761Y-69817072D01*
X93338167Y-69919215D01*
X93116238Y-70067503D01*
X92927503Y-70256238D01*
X92779215Y-70478167D01*
X92677072Y-70724761D01*
X92625000Y-70986544D01*
X78130000Y-70986544D01*
X78130000Y-69572702D01*
X84276903Y-69572702D01*
X84348486Y-69816671D01*
X84603996Y-69937571D01*
X84878184Y-70006300D01*
X85160512Y-70020217D01*
X85440130Y-69978787D01*
X85706292Y-69883603D01*
X85831514Y-69816671D01*
X85903097Y-69572702D01*
X85845955Y-69515560D01*
X90684045Y-69515560D01*
X90745932Y-69751368D01*
X90987790Y-69864266D01*
X91247027Y-69927811D01*
X91513680Y-69939561D01*
X91777501Y-69899063D01*
X92028353Y-69807875D01*
X92134068Y-69751368D01*
X92195955Y-69515560D01*
X91440000Y-68759605D01*
X90684045Y-69515560D01*
X85845955Y-69515560D01*
X85090000Y-68759605D01*
X84276903Y-69572702D01*
X78130000Y-69572702D01*
X78130000Y-68650512D01*
X83649783Y-68650512D01*
X83691213Y-68930130D01*
X83786397Y-69196292D01*
X83853329Y-69321514D01*
X84097298Y-69393097D01*
X84910395Y-68580000D01*
X85269605Y-68580000D01*
X86082702Y-69393097D01*
X86326671Y-69321514D01*
X86447571Y-69066004D01*
X86516300Y-68791816D01*
X86523109Y-68653680D01*
X90080439Y-68653680D01*
X90120937Y-68917501D01*
X90212125Y-69168353D01*
X90268632Y-69274068D01*
X90504440Y-69335955D01*
X91260395Y-68580000D01*
X91619605Y-68580000D01*
X92375560Y-69335955D01*
X92611368Y-69274068D01*
X92724266Y-69032210D01*
X92787811Y-68772973D01*
X92799561Y-68506320D01*
X92790386Y-68446544D01*
X95165000Y-68446544D01*
X95165000Y-68713456D01*
X95217072Y-68975239D01*
X95319215Y-69221833D01*
X95467503Y-69443762D01*
X95656238Y-69632497D01*
X95878167Y-69780785D01*
X96124761Y-69882928D01*
X96386544Y-69935000D01*
X96653456Y-69935000D01*
X96915239Y-69882928D01*
X97161833Y-69780785D01*
X97383762Y-69632497D01*
X97572497Y-69443762D01*
X97720785Y-69221833D01*
X97822928Y-68975239D01*
X97875000Y-68713456D01*
X97875000Y-68446544D01*
X97822928Y-68184761D01*
X97720785Y-67938167D01*
X97572497Y-67716238D01*
X97383762Y-67527503D01*
X97161833Y-67379215D01*
X96915239Y-67277072D01*
X96653456Y-67225000D01*
X96386544Y-67225000D01*
X96124761Y-67277072D01*
X95878167Y-67379215D01*
X95656238Y-67527503D01*
X95467503Y-67716238D01*
X95319215Y-67938167D01*
X95217072Y-68184761D01*
X95165000Y-68446544D01*
X92790386Y-68446544D01*
X92759063Y-68242499D01*
X92667875Y-67991647D01*
X92611368Y-67885932D01*
X92375560Y-67824045D01*
X91619605Y-68580000D01*
X91260395Y-68580000D01*
X90504440Y-67824045D01*
X90268632Y-67885932D01*
X90155734Y-68127790D01*
X90092189Y-68387027D01*
X90080439Y-68653680D01*
X86523109Y-68653680D01*
X86530217Y-68509488D01*
X86488787Y-68229870D01*
X86393603Y-67963708D01*
X86326671Y-67838486D01*
X86082702Y-67766903D01*
X85269605Y-68580000D01*
X84910395Y-68580000D01*
X84097298Y-67766903D01*
X83853329Y-67838486D01*
X83732429Y-68093996D01*
X83663700Y-68368184D01*
X83649783Y-68650512D01*
X78130000Y-68650512D01*
X78130000Y-67587298D01*
X84276903Y-67587298D01*
X85090000Y-68400395D01*
X85845955Y-67644440D01*
X90684045Y-67644440D01*
X91440000Y-68400395D01*
X92195955Y-67644440D01*
X92134068Y-67408632D01*
X91892210Y-67295734D01*
X91632973Y-67232189D01*
X91366320Y-67220439D01*
X91102499Y-67260937D01*
X90851647Y-67352125D01*
X90745932Y-67408632D01*
X90684045Y-67644440D01*
X85845955Y-67644440D01*
X85903097Y-67587298D01*
X85831514Y-67343329D01*
X85576004Y-67222429D01*
X85301816Y-67153700D01*
X85019488Y-67139783D01*
X84739870Y-67181213D01*
X84473708Y-67276397D01*
X84348486Y-67343329D01*
X84276903Y-67587298D01*
X78130000Y-67587298D01*
X78130000Y-65829721D01*
X107935900Y-65829721D01*
X107935900Y-66250279D01*
X108017947Y-66662756D01*
X108178888Y-67051302D01*
X108412537Y-67400983D01*
X108709917Y-67698363D01*
X109059598Y-67932012D01*
X109448144Y-68092953D01*
X109860621Y-68175000D01*
X110281179Y-68175000D01*
X110693656Y-68092953D01*
X111082202Y-67932012D01*
X111431883Y-67698363D01*
X111729263Y-67400983D01*
X111770010Y-67340000D01*
X114031928Y-67340000D01*
X114044188Y-67464482D01*
X114080498Y-67584180D01*
X114139463Y-67694494D01*
X114218815Y-67791185D01*
X114315506Y-67870537D01*
X114425820Y-67929502D01*
X114545518Y-67965812D01*
X114670000Y-67978072D01*
X115284250Y-67975000D01*
X115443000Y-67816250D01*
X115443000Y-66167000D01*
X114193750Y-66167000D01*
X114035000Y-66325750D01*
X114031928Y-67340000D01*
X111770010Y-67340000D01*
X111962912Y-67051302D01*
X112123853Y-66662756D01*
X112205900Y-66250279D01*
X112205900Y-65829721D01*
X112123853Y-65417244D01*
X111962912Y-65028698D01*
X111770011Y-64740000D01*
X114031928Y-64740000D01*
X114035000Y-65754250D01*
X114193750Y-65913000D01*
X115443000Y-65913000D01*
X115443000Y-64263750D01*
X115697000Y-64263750D01*
X115697000Y-65913000D01*
X115717000Y-65913000D01*
X115717000Y-66167000D01*
X115697000Y-66167000D01*
X115697000Y-67816250D01*
X115855750Y-67975000D01*
X116470000Y-67978072D01*
X116594482Y-67965812D01*
X116714180Y-67929502D01*
X116824494Y-67870537D01*
X116921185Y-67791185D01*
X117000537Y-67694494D01*
X117059502Y-67584180D01*
X117064495Y-67567720D01*
X117253074Y-67722481D01*
X117519740Y-67865017D01*
X117809088Y-67952790D01*
X118110000Y-67982427D01*
X118410913Y-67952790D01*
X118700261Y-67865017D01*
X118966927Y-67722481D01*
X119200661Y-67530661D01*
X119380000Y-67312135D01*
X119559339Y-67530661D01*
X119793074Y-67722481D01*
X120059740Y-67865017D01*
X120349088Y-67952790D01*
X120650000Y-67982427D01*
X120950913Y-67952790D01*
X121240261Y-67865017D01*
X121506927Y-67722481D01*
X121740661Y-67530661D01*
X121920000Y-67312135D01*
X122099339Y-67530661D01*
X122333074Y-67722481D01*
X122599740Y-67865017D01*
X122889088Y-67952790D01*
X123190000Y-67982427D01*
X123490913Y-67952790D01*
X123780261Y-67865017D01*
X124046927Y-67722481D01*
X124280661Y-67530661D01*
X124464781Y-67306309D01*
X124524252Y-67398396D01*
X124734394Y-67615210D01*
X124982796Y-67786862D01*
X125259913Y-67906755D01*
X125365260Y-67931036D01*
X125603000Y-67810378D01*
X125603000Y-66167000D01*
X125583000Y-66167000D01*
X125583000Y-65913000D01*
X125603000Y-65913000D01*
X125603000Y-64269622D01*
X125365260Y-64148964D01*
X125259913Y-64173245D01*
X124982796Y-64293138D01*
X124734394Y-64464790D01*
X124524252Y-64681604D01*
X124464781Y-64773691D01*
X124280661Y-64549339D01*
X124046926Y-64357519D01*
X123780260Y-64214983D01*
X123490912Y-64127210D01*
X123190000Y-64097573D01*
X122889087Y-64127210D01*
X122599739Y-64214983D01*
X122333073Y-64357519D01*
X122099339Y-64549339D01*
X121920000Y-64767865D01*
X121740661Y-64549339D01*
X121506926Y-64357519D01*
X121240260Y-64214983D01*
X120950912Y-64127210D01*
X120650000Y-64097573D01*
X120349087Y-64127210D01*
X120059739Y-64214983D01*
X119793073Y-64357519D01*
X119559339Y-64549339D01*
X119380000Y-64767865D01*
X119200661Y-64549339D01*
X118966926Y-64357519D01*
X118700260Y-64214983D01*
X118410912Y-64127210D01*
X118110000Y-64097573D01*
X117809087Y-64127210D01*
X117519739Y-64214983D01*
X117253073Y-64357519D01*
X117064495Y-64512280D01*
X117059502Y-64495820D01*
X117000537Y-64385506D01*
X116921185Y-64288815D01*
X116824494Y-64209463D01*
X116714180Y-64150498D01*
X116594482Y-64114188D01*
X116470000Y-64101928D01*
X115855750Y-64105000D01*
X115697000Y-64263750D01*
X115443000Y-64263750D01*
X115284250Y-64105000D01*
X114670000Y-64101928D01*
X114545518Y-64114188D01*
X114425820Y-64150498D01*
X114315506Y-64209463D01*
X114218815Y-64288815D01*
X114139463Y-64385506D01*
X114080498Y-64495820D01*
X114044188Y-64615518D01*
X114031928Y-64740000D01*
X111770011Y-64740000D01*
X111729263Y-64679017D01*
X111431883Y-64381637D01*
X111082202Y-64147988D01*
X110693656Y-63987047D01*
X110281179Y-63905000D01*
X109860621Y-63905000D01*
X109448144Y-63987047D01*
X109059598Y-64147988D01*
X108709917Y-64381637D01*
X108412537Y-64679017D01*
X108178888Y-65028698D01*
X108017947Y-65417244D01*
X107935900Y-65829721D01*
X78130000Y-65829721D01*
X78130000Y-58199872D01*
X79045000Y-58199872D01*
X79045000Y-58640128D01*
X79130890Y-59071925D01*
X79299369Y-59478669D01*
X79543962Y-59844729D01*
X79855271Y-60156038D01*
X80221331Y-60400631D01*
X80628075Y-60569110D01*
X81059872Y-60655000D01*
X81500128Y-60655000D01*
X81931925Y-60569110D01*
X82338669Y-60400631D01*
X82704729Y-60156038D01*
X83016038Y-59844729D01*
X83260631Y-59478669D01*
X83429110Y-59071925D01*
X83515000Y-58640128D01*
X83515000Y-58199872D01*
X181915000Y-58199872D01*
X181915000Y-58640128D01*
X182000890Y-59071925D01*
X182169369Y-59478669D01*
X182413962Y-59844729D01*
X182725271Y-60156038D01*
X183091331Y-60400631D01*
X183498075Y-60569110D01*
X183929872Y-60655000D01*
X184370128Y-60655000D01*
X184801925Y-60569110D01*
X185208669Y-60400631D01*
X185574729Y-60156038D01*
X185886038Y-59844729D01*
X186130631Y-59478669D01*
X186299110Y-59071925D01*
X186385000Y-58640128D01*
X186385000Y-58199872D01*
X186299110Y-57768075D01*
X186130631Y-57361331D01*
X185886038Y-56995271D01*
X185574729Y-56683962D01*
X185208669Y-56439369D01*
X184801925Y-56270890D01*
X184370128Y-56185000D01*
X183929872Y-56185000D01*
X183498075Y-56270890D01*
X183091331Y-56439369D01*
X182725271Y-56683962D01*
X182413962Y-56995271D01*
X182169369Y-57361331D01*
X182000890Y-57768075D01*
X181915000Y-58199872D01*
X83515000Y-58199872D01*
X83429110Y-57768075D01*
X83260631Y-57361331D01*
X83016038Y-56995271D01*
X82704729Y-56683962D01*
X82338669Y-56439369D01*
X81931925Y-56270890D01*
X81500128Y-56185000D01*
X81059872Y-56185000D01*
X80628075Y-56270890D01*
X80221331Y-56439369D01*
X79855271Y-56683962D01*
X79543962Y-56995271D01*
X79299369Y-57361331D01*
X79130890Y-57768075D01*
X79045000Y-58199872D01*
X78130000Y-58199872D01*
X78130000Y-55270000D01*
X187300000Y-55270000D01*
X187300001Y-57117581D01*
G37*
%TD.AperFunction*%
%TD*%
M02*
