%TF.GenerationSoftware,KiCad,Pcbnew,(5.1.10)-1*%
%TF.CreationDate,2021-11-07T19:57:30+01:00*%
%TF.ProjectId,bussData,62757373-4461-4746-912e-6b696361645f,rev?*%
%TF.SameCoordinates,Original*%
%TF.FileFunction,Soldermask,Bot*%
%TF.FilePolarity,Negative*%
%FSLAX46Y46*%
G04 Gerber Fmt 4.6, Leading zero omitted, Abs format (unit mm)*
G04 Created by KiCad (PCBNEW (5.1.10)-1) date 2021-11-07 19:57:30*
%MOMM*%
%LPD*%
G01*
G04 APERTURE LIST*
%ADD10C,1.800000*%
%ADD11C,3.200000*%
%ADD12C,3.000000*%
%ADD13O,1.800000X2.600000*%
%ADD14R,1.800000X2.600000*%
%ADD15O,1.600000X1.600000*%
%ADD16C,1.600000*%
%ADD17C,1.440000*%
%ADD18C,1.750000*%
%ADD19C,4.000000*%
%ADD20C,2.500000*%
G04 APERTURE END LIST*
D10*
%TO.C,esp8266 D1 Wemos mini*%
X161290000Y-74930000D03*
X163830000Y-74930000D03*
X166370000Y-74930000D03*
X168910000Y-74930000D03*
X171450000Y-74930000D03*
X173990000Y-74930000D03*
X176530000Y-74930000D03*
X179070000Y-74930000D03*
X179070000Y-97790000D03*
X176530000Y-97790000D03*
X173990000Y-97790000D03*
X171450000Y-97790000D03*
X168910000Y-97790000D03*
X166370000Y-97790000D03*
X163830000Y-97790000D03*
X161290000Y-97790000D03*
%TD*%
D11*
%TO.C,M3*%
X184150000Y-104140000D03*
%TD*%
%TO.C,REF\u002A\u002A*%
X81280000Y-104140000D03*
%TD*%
%TO.C,REF\u002A\u002A*%
X81280000Y-58420000D03*
%TD*%
%TO.C,REF\u002A\u002A*%
X184150000Y-58420000D03*
%TD*%
D12*
%TO.C,LCD1*%
X185070000Y-66040000D03*
X185069480Y-97040700D03*
X110070900Y-97040700D03*
X110070900Y-66040000D03*
D13*
X153670000Y-66040000D03*
X151130000Y-66040000D03*
X148590000Y-66040000D03*
X146050000Y-66040000D03*
X143510000Y-66040000D03*
X140970000Y-66040000D03*
X138430000Y-66040000D03*
X135890000Y-66040000D03*
X133350000Y-66040000D03*
X130810000Y-66040000D03*
X128270000Y-66040000D03*
X125730000Y-66040000D03*
X123190000Y-66040000D03*
X120650000Y-66040000D03*
X118110000Y-66040000D03*
D14*
X115570000Y-66040000D03*
%TD*%
D15*
%TO.C,R_VDD*%
X120650000Y-92710000D03*
D16*
X120650000Y-82550000D03*
%TD*%
D15*
%TO.C,R_BTN*%
X85090000Y-78740000D03*
D16*
X85090000Y-68580000D03*
%TD*%
D15*
%TO.C,R_GND*%
X125730000Y-92710000D03*
D16*
X125730000Y-82550000D03*
%TD*%
D17*
%TO.C,DIM1*%
X91440000Y-68580000D03*
X93980000Y-71120000D03*
X96520000Y-68580000D03*
%TD*%
D18*
%TO.C,btn1*%
X99060000Y-90170000D03*
X88900000Y-90170000D03*
D19*
X93980000Y-90170000D03*
D20*
X96520000Y-85090000D03*
X90170000Y-87630000D03*
%TD*%
M02*
