M48
; DRILL file {KiCad (5.1.10)-1} date 11/07/21 19:57:50
; FORMAT={-:-/ absolute / inch / decimal}
; #@! TF.CreationDate,2021-11-07T19:57:50+01:00
; #@! TF.GenerationSoftware,Kicad,Pcbnew,(5.1.10)-1
; #@! TF.FileFunction,Plated,1,2,PTH
FMAT,2
INCH
T1C0.0315
T2C0.0400
T3C0.0472
T4C0.0591
T5C0.0984
%
G90
G05
T1
X3.35Y-2.7
X3.35Y-3.1
X3.6Y-2.7
X3.7Y-2.8
X3.8Y-2.7
X4.75Y-3.25
X4.75Y-3.65
X4.95Y-3.25
X4.95Y-3.65
T2
X6.35Y-2.95
X6.35Y-3.85
X6.45Y-2.95
X6.45Y-3.85
X6.55Y-2.95
X6.55Y-3.85
X6.65Y-2.95
X6.65Y-3.85
X6.75Y-2.95
X6.75Y-3.85
X6.85Y-2.95
X6.85Y-3.85
X6.95Y-2.95
X6.95Y-3.85
X7.05Y-2.95
X7.05Y-3.85
T3
X4.55Y-2.6
X4.65Y-2.6
X4.75Y-2.6
X4.85Y-2.6
X4.95Y-2.6
X5.05Y-2.6
X5.15Y-2.6
X5.25Y-2.6
X5.35Y-2.6
X5.45Y-2.6
X5.55Y-2.6
X5.65Y-2.6
X5.75Y-2.6
X5.85Y-2.6
X5.95Y-2.6
X6.05Y-2.6
T4
X3.55Y-3.45
X3.8Y-3.35
T5
X4.3335Y-2.6
X4.3335Y-3.8205
X7.2862Y-3.8205
X7.2862Y-2.6
T0
M30
