%TF.GenerationSoftware,KiCad,Pcbnew,(5.1.10)-1*%
%TF.CreationDate,2021-11-08T12:22:01+01:00*%
%TF.ProjectId,bussData,62757373-4461-4746-912e-6b696361645f,rev?*%
%TF.SameCoordinates,Original*%
%TF.FileFunction,Legend,Top*%
%TF.FilePolarity,Positive*%
%FSLAX46Y46*%
G04 Gerber Fmt 4.6, Leading zero omitted, Abs format (unit mm)*
G04 Created by KiCad (PCBNEW (5.1.10)-1) date 2021-11-08 12:22:01*
%MOMM*%
%LPD*%
G01*
G04 APERTURE LIST*
%ADD10C,0.100000*%
%ADD11C,0.120000*%
%ADD12C,0.150000*%
G04 APERTURE END LIST*
D10*
%TO.C,esp8266 D1 Wemos mini*%
X187727228Y-75542528D02*
X187727228Y-81353820D01*
X187727228Y-81353820D02*
X186443795Y-81380151D01*
X186443795Y-81380151D02*
X186450483Y-90211373D01*
X186450483Y-90211373D02*
X187652736Y-90209397D01*
X187652736Y-90209397D02*
X187626658Y-99290193D01*
X187626658Y-99290193D02*
X156456507Y-99276195D01*
X156456507Y-99276195D02*
X155853714Y-99043384D01*
X155853714Y-99043384D02*
X155308833Y-98759901D01*
X155308833Y-98759901D02*
X154822423Y-98425253D01*
X154822423Y-98425253D02*
X154395048Y-98038953D01*
X154395048Y-98038953D02*
X154027259Y-97600512D01*
X154027259Y-97600512D02*
X153719623Y-97109440D01*
X153719623Y-97109440D02*
X153472690Y-96565250D01*
X153472690Y-96565250D02*
X153287024Y-95967453D01*
X153287024Y-95967453D02*
X153258266Y-76929540D01*
X153258266Y-76929540D02*
X153492259Y-76310176D01*
X153492259Y-76310176D02*
X153776742Y-75721982D01*
X153776742Y-75721982D02*
X154126257Y-75178555D01*
X154126257Y-75178555D02*
X154555342Y-74693497D01*
X154555342Y-74693497D02*
X155078540Y-74280405D01*
X155078540Y-74280405D02*
X155710387Y-73952878D01*
X155710387Y-73952878D02*
X156465425Y-73724518D01*
X156465425Y-73724518D02*
X157358193Y-73608922D01*
X157358193Y-73608922D02*
X179913285Y-73583974D01*
X179913285Y-73583974D02*
X180874181Y-75527520D01*
X180874181Y-75527520D02*
X187682524Y-75557314D01*
X181501451Y-89539650D02*
X181501451Y-82400069D01*
X181501451Y-82400069D02*
X187315188Y-82400069D01*
X187315188Y-82400069D02*
X187315188Y-89539650D01*
X187315188Y-89539650D02*
X181501451Y-89539650D01*
X180852349Y-75616400D02*
X180852349Y-77168622D01*
X180852349Y-77168622D02*
X181381515Y-77697789D01*
X181381515Y-77697789D02*
X181381515Y-78950150D01*
X181381515Y-78950150D02*
X186443876Y-78950150D01*
X186443876Y-78950150D02*
X186443876Y-77662511D01*
X186443876Y-77662511D02*
X186937765Y-77133344D01*
X186937765Y-77133344D02*
X186937765Y-75563483D01*
X186937765Y-75563483D02*
X180852349Y-75616400D01*
X182933738Y-75581122D02*
X182933738Y-74928483D01*
X182933738Y-74928483D02*
X184926932Y-74928483D01*
X184926932Y-74928483D02*
X184926932Y-75545844D01*
D11*
%TO.C,LCD1*%
X107430000Y-99680000D02*
X187710000Y-99680000D01*
X187710000Y-99680000D02*
X187710000Y-63400000D01*
X187710000Y-63400000D02*
X108230000Y-63400000D01*
X107430000Y-63400000D02*
X107430000Y-99680000D01*
X107440000Y-63400000D02*
X108230000Y-63400000D01*
X114070000Y-63040000D02*
X117070000Y-63040000D01*
X115770000Y-74040000D02*
X179270000Y-74040000D01*
X115270280Y-88539320D02*
X115270280Y-74540000D01*
X179270660Y-89040000D02*
X115770000Y-89040000D01*
X179770000Y-74540000D02*
X179770000Y-88540000D01*
X110570000Y-69040000D02*
X183570000Y-69040000D01*
X183570000Y-69040000D02*
X183570000Y-94040000D01*
X183570000Y-94040000D02*
X110570000Y-94040000D01*
X110570000Y-94040000D02*
X110570000Y-69040000D01*
X115770660Y-74038460D02*
G75*
G03*
X115270280Y-74538840I0J-500380D01*
G01*
X115270280Y-88539320D02*
G75*
G03*
X115770660Y-89039700I500380J0D01*
G01*
X179270660Y-89039700D02*
G75*
G03*
X179771040Y-88539320I0J500380D01*
G01*
X179770000Y-74540000D02*
G75*
G03*
X179270000Y-74040000I-500000J0D01*
G01*
%TO.C,R_VDD*%
X122020000Y-84360000D02*
X119280000Y-84360000D01*
X119280000Y-84360000D02*
X119280000Y-90900000D01*
X119280000Y-90900000D02*
X122020000Y-90900000D01*
X122020000Y-90900000D02*
X122020000Y-84360000D01*
X120650000Y-83590000D02*
X120650000Y-84360000D01*
X120650000Y-91670000D02*
X120650000Y-90900000D01*
%TO.C,R_BTN*%
X86460000Y-70390000D02*
X83720000Y-70390000D01*
X83720000Y-70390000D02*
X83720000Y-76930000D01*
X83720000Y-76930000D02*
X86460000Y-76930000D01*
X86460000Y-76930000D02*
X86460000Y-70390000D01*
X85090000Y-69620000D02*
X85090000Y-70390000D01*
X85090000Y-77700000D02*
X85090000Y-76930000D01*
%TO.C,R_GND*%
X127100000Y-84360000D02*
X124360000Y-84360000D01*
X124360000Y-84360000D02*
X124360000Y-90900000D01*
X124360000Y-90900000D02*
X127100000Y-90900000D01*
X127100000Y-90900000D02*
X127100000Y-84360000D01*
X125730000Y-83590000D02*
X125730000Y-84360000D01*
X125730000Y-91670000D02*
X125730000Y-90900000D01*
%TO.C,DIM1*%
X97400000Y-64900000D02*
X97400000Y-67930000D01*
X97400000Y-69230000D02*
X97400000Y-72140000D01*
X90560000Y-64900000D02*
X90560000Y-67930000D01*
X90560000Y-69230000D02*
X90560000Y-72140000D01*
X97400000Y-64900000D02*
X90560000Y-64900000D01*
X97400000Y-72140000D02*
X90560000Y-72140000D01*
%TO.C,btn1*%
X86880000Y-83070000D02*
X86880000Y-97270000D01*
X86880000Y-97270000D02*
X101080000Y-97270000D01*
X101080000Y-97270000D02*
X101080000Y-83070000D01*
X101080000Y-83070000D02*
X86880000Y-83070000D01*
%TO.C,M3*%
D12*
X178260476Y-103322380D02*
X178260476Y-102322380D01*
X178593809Y-103036666D01*
X178927142Y-102322380D01*
X178927142Y-103322380D01*
X179308095Y-102322380D02*
X179927142Y-102322380D01*
X179593809Y-102703333D01*
X179736666Y-102703333D01*
X179831904Y-102750952D01*
X179879523Y-102798571D01*
X179927142Y-102893809D01*
X179927142Y-103131904D01*
X179879523Y-103227142D01*
X179831904Y-103274761D01*
X179736666Y-103322380D01*
X179450952Y-103322380D01*
X179355714Y-103274761D01*
X179308095Y-103227142D01*
%TO.C,R_VDD*%
X123472380Y-89130000D02*
X122996190Y-89463333D01*
X123472380Y-89701428D02*
X122472380Y-89701428D01*
X122472380Y-89320476D01*
X122520000Y-89225238D01*
X122567619Y-89177619D01*
X122662857Y-89130000D01*
X122805714Y-89130000D01*
X122900952Y-89177619D01*
X122948571Y-89225238D01*
X122996190Y-89320476D01*
X122996190Y-89701428D01*
X123567619Y-88939523D02*
X123567619Y-88177619D01*
X122472380Y-88082380D02*
X123472380Y-87749047D01*
X122472380Y-87415714D01*
X123472380Y-87082380D02*
X122472380Y-87082380D01*
X122472380Y-86844285D01*
X122520000Y-86701428D01*
X122615238Y-86606190D01*
X122710476Y-86558571D01*
X122900952Y-86510952D01*
X123043809Y-86510952D01*
X123234285Y-86558571D01*
X123329523Y-86606190D01*
X123424761Y-86701428D01*
X123472380Y-86844285D01*
X123472380Y-87082380D01*
X123472380Y-86082380D02*
X122472380Y-86082380D01*
X122472380Y-85844285D01*
X122520000Y-85701428D01*
X122615238Y-85606190D01*
X122710476Y-85558571D01*
X122900952Y-85510952D01*
X123043809Y-85510952D01*
X123234285Y-85558571D01*
X123329523Y-85606190D01*
X123424761Y-85701428D01*
X123472380Y-85844285D01*
X123472380Y-86082380D01*
%TO.C,R_BTN*%
X87912380Y-75136190D02*
X87436190Y-75469523D01*
X87912380Y-75707619D02*
X86912380Y-75707619D01*
X86912380Y-75326666D01*
X86960000Y-75231428D01*
X87007619Y-75183809D01*
X87102857Y-75136190D01*
X87245714Y-75136190D01*
X87340952Y-75183809D01*
X87388571Y-75231428D01*
X87436190Y-75326666D01*
X87436190Y-75707619D01*
X88007619Y-74945714D02*
X88007619Y-74183809D01*
X87388571Y-73612380D02*
X87436190Y-73469523D01*
X87483809Y-73421904D01*
X87579047Y-73374285D01*
X87721904Y-73374285D01*
X87817142Y-73421904D01*
X87864761Y-73469523D01*
X87912380Y-73564761D01*
X87912380Y-73945714D01*
X86912380Y-73945714D01*
X86912380Y-73612380D01*
X86960000Y-73517142D01*
X87007619Y-73469523D01*
X87102857Y-73421904D01*
X87198095Y-73421904D01*
X87293333Y-73469523D01*
X87340952Y-73517142D01*
X87388571Y-73612380D01*
X87388571Y-73945714D01*
X86912380Y-73088571D02*
X86912380Y-72517142D01*
X87912380Y-72802857D02*
X86912380Y-72802857D01*
X87912380Y-72183809D02*
X86912380Y-72183809D01*
X87912380Y-71612380D01*
X86912380Y-71612380D01*
%TO.C,R_GND*%
X128552380Y-89225238D02*
X128076190Y-89558571D01*
X128552380Y-89796666D02*
X127552380Y-89796666D01*
X127552380Y-89415714D01*
X127600000Y-89320476D01*
X127647619Y-89272857D01*
X127742857Y-89225238D01*
X127885714Y-89225238D01*
X127980952Y-89272857D01*
X128028571Y-89320476D01*
X128076190Y-89415714D01*
X128076190Y-89796666D01*
X128647619Y-89034761D02*
X128647619Y-88272857D01*
X127600000Y-87510952D02*
X127552380Y-87606190D01*
X127552380Y-87749047D01*
X127600000Y-87891904D01*
X127695238Y-87987142D01*
X127790476Y-88034761D01*
X127980952Y-88082380D01*
X128123809Y-88082380D01*
X128314285Y-88034761D01*
X128409523Y-87987142D01*
X128504761Y-87891904D01*
X128552380Y-87749047D01*
X128552380Y-87653809D01*
X128504761Y-87510952D01*
X128457142Y-87463333D01*
X128123809Y-87463333D01*
X128123809Y-87653809D01*
X128552380Y-87034761D02*
X127552380Y-87034761D01*
X128552380Y-86463333D01*
X127552380Y-86463333D01*
X128552380Y-85987142D02*
X127552380Y-85987142D01*
X127552380Y-85749047D01*
X127600000Y-85606190D01*
X127695238Y-85510952D01*
X127790476Y-85463333D01*
X127980952Y-85415714D01*
X128123809Y-85415714D01*
X128314285Y-85463333D01*
X128409523Y-85510952D01*
X128504761Y-85606190D01*
X128552380Y-85749047D01*
X128552380Y-85987142D01*
%TD*%
M02*
