%TF.GenerationSoftware,KiCad,Pcbnew,(5.1.10)-1*%
%TF.CreationDate,2021-11-08T12:22:01+01:00*%
%TF.ProjectId,bussData,62757373-4461-4746-912e-6b696361645f,rev?*%
%TF.SameCoordinates,Original*%
%TF.FileFunction,Legend,Bot*%
%TF.FilePolarity,Positive*%
%FSLAX46Y46*%
G04 Gerber Fmt 4.6, Leading zero omitted, Abs format (unit mm)*
G04 Created by KiCad (PCBNEW (5.1.10)-1) date 2021-11-08 12:22:01*
%MOMM*%
%LPD*%
G01*
G04 APERTURE LIST*
%ADD10C,0.250000*%
%ADD11C,0.150000*%
G04 APERTURE END LIST*
D10*
X119997142Y-103925714D02*
X119568571Y-104068571D01*
X119425714Y-104211428D01*
X119282857Y-104497142D01*
X119282857Y-104925714D01*
X119425714Y-105211428D01*
X119568571Y-105354285D01*
X119854285Y-105497142D01*
X120997142Y-105497142D01*
X120997142Y-102497142D01*
X119997142Y-102497142D01*
X119711428Y-102640000D01*
X119568571Y-102782857D01*
X119425714Y-103068571D01*
X119425714Y-103354285D01*
X119568571Y-103640000D01*
X119711428Y-103782857D01*
X119997142Y-103925714D01*
X120997142Y-103925714D01*
X118282857Y-103497142D02*
X117568571Y-105497142D01*
X116854285Y-103497142D02*
X117568571Y-105497142D01*
X117854285Y-106211428D01*
X117997142Y-106354285D01*
X118282857Y-106497142D01*
X113568571Y-104640000D02*
X112140000Y-104640000D01*
X113854285Y-105497142D02*
X112854285Y-102497142D01*
X111854285Y-105497142D01*
X110854285Y-103497142D02*
X110854285Y-105497142D01*
X110854285Y-103782857D02*
X110711428Y-103640000D01*
X110425714Y-103497142D01*
X109997142Y-103497142D01*
X109711428Y-103640000D01*
X109568571Y-103925714D01*
X109568571Y-105497142D01*
X106854285Y-105497142D02*
X106854285Y-102497142D01*
X106854285Y-105354285D02*
X107140000Y-105497142D01*
X107711428Y-105497142D01*
X107997142Y-105354285D01*
X108140000Y-105211428D01*
X108282857Y-104925714D01*
X108282857Y-104068571D01*
X108140000Y-103782857D01*
X107997142Y-103640000D01*
X107711428Y-103497142D01*
X107140000Y-103497142D01*
X106854285Y-103640000D01*
X104282857Y-105354285D02*
X104568571Y-105497142D01*
X105140000Y-105497142D01*
X105425714Y-105354285D01*
X105568571Y-105068571D01*
X105568571Y-103925714D01*
X105425714Y-103640000D01*
X105140000Y-103497142D01*
X104568571Y-103497142D01*
X104282857Y-103640000D01*
X104140000Y-103925714D01*
X104140000Y-104211428D01*
X105568571Y-104497142D01*
X102854285Y-105497142D02*
X102854285Y-103497142D01*
X102854285Y-104068571D02*
X102711428Y-103782857D01*
X102568571Y-103640000D01*
X102282857Y-103497142D01*
X101997142Y-103497142D01*
X101140000Y-105354285D02*
X100854285Y-105497142D01*
X100282857Y-105497142D01*
X99997142Y-105354285D01*
X99854285Y-105068571D01*
X99854285Y-104925714D01*
X99997142Y-104640000D01*
X100282857Y-104497142D01*
X100711428Y-104497142D01*
X100997142Y-104354285D01*
X101140000Y-104068571D01*
X101140000Y-103925714D01*
X100997142Y-103640000D01*
X100711428Y-103497142D01*
X100282857Y-103497142D01*
X99997142Y-103640000D01*
X96282857Y-105497142D02*
X96282857Y-102497142D01*
X95282857Y-104640000D01*
X94282857Y-102497142D01*
X94282857Y-105497142D01*
X91282857Y-103497142D02*
X93140000Y-105497142D01*
X92425714Y-105497142D02*
X92711428Y-105354285D01*
X92854285Y-105211428D01*
X92997142Y-104925714D01*
X92997142Y-104068571D01*
X92854285Y-103782857D01*
X92711428Y-103640000D01*
X92425714Y-103497142D01*
X91997142Y-103497142D01*
X91711428Y-103640000D01*
X91568571Y-103782857D01*
X91425714Y-104068571D01*
X91425714Y-104925714D01*
X91568571Y-105211428D01*
X91711428Y-105354285D01*
X91997142Y-105497142D01*
X92425714Y-105497142D01*
X90140000Y-105497142D02*
X90140000Y-103497142D01*
X90140000Y-104068571D02*
X89997142Y-103782857D01*
X89854285Y-103640000D01*
X89568571Y-103497142D01*
X89282857Y-103497142D01*
X88282857Y-105497142D02*
X88282857Y-102497142D01*
X87997142Y-104354285D02*
X87140000Y-105497142D01*
X87140000Y-103497142D02*
X88282857Y-104640000D01*
D11*
%TO.C,esp8266 D1 Wemos mini*%
X175260000Y-92710000D02*
X161290000Y-92710000D01*
X161290000Y-92710000D02*
X161290000Y-80010000D01*
X161290000Y-80010000D02*
X175260000Y-80010000D01*
X175260000Y-80010000D02*
X175260000Y-92710000D01*
X176530000Y-95250000D02*
X176530000Y-77470000D01*
X176530000Y-77470000D02*
X153670000Y-77470000D01*
X153670000Y-77470000D02*
X153670000Y-95250000D01*
X153670000Y-95250000D02*
X176530000Y-95250000D01*
%TD*%
M02*
